<svg id="Layer_1" data-name="Layer 1" xmlns="http://www.w3.org/2000/svg" viewBox="0 0 1361.05 607.37"><defs><style>.cls-1{fill:#231f20;}.cls-2{fill:#2b1d1b;}.cls-3{fill:#99211f;}.cls-4{fill:#fcfcfc;}</style></defs><title>logocl2-fixedr</title><path class="cls-1" d="M277.48,193.61c-.94-2.64-3.54-3.35-5.52-4.65a11.9,11.9,0,0,1-5.69-11c.21-7.15,1.28-14.24,1.28-21.43,0-4.07,2.75-6.8,7.06-6.95s5.91,2.86,6.15,6.44c.31,4.6.08,9.23.08,15,3.62-3.25,4-6.65,4.43-9.88.56-4,2.54-3.69,5-1.88,2.89,2.09,3.74,5.42,4.78,8.57A65.44,65.44,0,0,0,298,176c1.77-5.22.62-10-2-14.49a61.86,61.86,0,0,0-4.45-6.63c-2.4-3.14-3.72-6.43-1.47-10.1,2.79-4.57,7.14-6.29,12.34-6,4.18.2,6.45,2.55,7.87,6.43,2.94,8,2.43,16.38,2.86,24.66a14.59,14.59,0,0,0,.6,4.67c4.25-9.16,3.88-18.44.8-27.78-2.09-6.34-6.31-10.8-12.19-13.85-1.26-.65-3.2-1.33-2.91-3s2.22-2.23,3.86-2.66c13.79-3.57,24.76,4.68,26.6,20A57.27,57.27,0,0,0,332.49,160c1.86-6.17,3.59-12.38,5.62-18.49,2.35-7.07,10.2-8.81,15.48-3.63,2.81,2.75,3.59,5.91.88,8.83-8.67,9.35-7,21.3-9.18,32.82,3.91-1,4.61-3.92,5.48-6.42,1.53-4.38,2.74-8.89,4-13.35.33-1.11.4-2.52,1.91-2.5s1.74,1.43,2,2.51c1.22,4.78,1.57,9.78,3.62,14.6,2.37-1.28,1.55-3.34,1.61-4.93a20.49,20.49,0,0,1,.74-6.4c.73-2,1.92-3.5,4.12-3.9s3.5,1.2,4.44,2.66a57.63,57.63,0,0,1,3.26,6.68c3.57-5.72,1.8-10.05-4.47-11.28a31.39,31.39,0,0,0-3.93-.73c-4-.26-6.4-2.2-6.92-6.33a29.05,29.05,0,0,0-1.21-4.32c-3.14-10.79-10.08-16.56-21.38-16.46-5.84.05-10.65-1.82-15.51-4.45-6.29-3.4-12.64-6.68-19.59-8.65-9-2.54-16.29,1.12-19.46,9.86-1.84,5.06-1.88,5.11-6,1.31-1.25-1.15-2.44-1.74-4-.94-10.17,5.19-21.43,6.16-32.39,7.44-12.89,1.5-23.77,5.72-33.32,14.77-10.52,10-22.64,18-35.4,25-2.46,1.35-6.24,2.82-6.12,5.26s4.31,1.85,6.67,2.67c4.07,1.41,8.43,1.88,12.35,3.85,2.13,1.07,3.7,2.56,3.5,5-.22,2.72-2.74,3.27-4.82,3.53-7.41.91-14.57-.88-21.68-2.58-9.51-2.28-18.39-1.51-26.73,4.12-4.93,3.33-7,7.92-7.14,13.51-.33,10.26-3.5,19-11.43,26.09-9.73,8.68-11.39,19.19-7.41,31.7,5.34,16.83,12,33.12,18.6,49.44a30.89,30.89,0,0,0,10.53,13.06c12.42,9.35,25.09,18.14,40.84,21.07a31.31,31.31,0,0,0,16.46-1,31.21,31.21,0,0,1-18.67,7.86c-6,.57-11.65-1.07-17-3.41a169.11,169.11,0,0,1-32.39-18.6A40.14,40.14,0,0,1,115,318.21c-8-18.83-16.49-37.44-20.53-57.67-2.26-11.31.2-21,8.93-29,7.2-6.59,11.73-14.11,12-24.68.31-14.16,12-23.48,27.14-23.46,6.75,0,13.48.19,21.13,3.41-2.75-4-5.89-3.88-8.49-4.54-4.09-1-5-2.64-3-6.45,2.09-4,5.46-6.68,9.16-9,8.19-5.08,16.59-9.84,24.64-15.13,9.05-5.94,17.1-13.21,25.14-20.44a10.86,10.86,0,0,1,5.69-2.79c14.43-2.48,28.81-5.28,43.28-7.55,4.42-.69,8.13-5.13,13.22-2.47.71.37,1.22-.89,1.69-1.57,6-8.77,14.55-10.77,24.39-8.61,5.39,1.18,10.37,3.57,15.25,6.13,1.53.8,3,2.91,3.72-1.24.47-2.68,4.47-2,7-1.87a81.39,81.39,0,0,1,31.1,8.39c8.28,4.07,15.88,9.07,21.86,16.23,3.8,4.54,6.53,9.46,7.14,15.58,1,10.27,2.09,20.26-2.56,30.24-3.58,7.69-3.59,16.53-5.54,24.78-2.44,10.35-5,20.64-13.72,27.88-1.48,1.22-1,2.64-.86,4.09.58,4.62,1.17,9.24,1.8,13.85.44,3.21,1,6.4-.2,10.79-2.43-11.34-3.76-21.68-6.32-31.79A124.41,124.41,0,0,0,354,218c-2.63-7-7.22-11.6-14.93-13.17-10.43-2.12-20.75-4.37-31.51-4.74-16.7-.58-28.25,7.43-38.13,19.85s-17.09,26.54-26.48,39.25a94.56,94.56,0,0,1-12.29,13c-7.1,6.58-12.62,14.22-12.61,24.49a35.57,35.57,0,0,0,1.37,8.35c2.52,10.17,5.17,20.3,7.76,30.45.88,3.44-1.91,9.28-5.06,10.55-1.38.56-2.61.59-3.3-1.06-.19-.46-.51-.86-.67-1.33-.86-2.51-1-6.32-2.7-7.2-1.92-1-4.15,2.31-6.4,3.57-1.16.64-12.85,10.22-14.08,10.1,4.15-2,17.48-16.53,22-17.53,1.88-.42,4.83-2.45,3.87-6-2.76-10.18-5.44-20.39-8.35-31.35-4.24,4.67-5.68,9.88-8.26,14.39a46.65,46.65,0,0,1-4.28,6.7c-3.82,4.64-7.47,5.59-10.51,2.78-2.83-2.62-2.56-6.67,1.41-10.48a25.44,25.44,0,0,0,6.51-11,24.56,24.56,0,0,0,1.12-11.76c-1.06-6.7-.13-7.72,6.17-10.38,7.79-3.29,16.45-4.71,23.33-9.95,8.76-6.66,14.48-15.94,19.7-25.34,3.64-6.55,6.81-13.31,11.7-19.07.9-1.06,2.54-2.26,1.4-3.69a4.21,4.21,0,0,0-4.63-1,12.38,12.38,0,0,0-5.94,4.35c-1.77,2.22-4.1,3.59-7,2.4a6.92,6.92,0,0,1-4.4-6.66c-.06-2.33-.45-4.83.22-7,3.27-10.38,4.25-21.15,5.88-31.82a10.77,10.77,0,0,1,1.68-4.1,5.85,5.85,0,0,1,6.56-2.45c2.29.51,4.27,1.51,5,4.28,1,4,2.52,7.91,3.58,11.92C263.37,193.68,269.56,196.21,277.48,193.61Z"/><path class="cls-2" d="M1078.7,472.23c1.55-5.64.58-11.23-.06-16.67-.92-7.85.51-13.85,9.34-16.39-9.13-11.14-10.74-23.53-7.61-36.57,4.72-19.67,22.71-31.38,43.1-28.5a79.72,79.72,0,0,1,17.4,4.34c5.53,2.11,8.76,5.88,8.9,12,.15,6.49.24,13,.38,19.48.09,4-2.21,6.53-5.28,8.43-1.37.85-2.32,1.34-.88,2.86,4,4.22,6.78,9.27,9.86,15.9a99.63,99.63,0,0,1,6.06-31.88c7.51-20.19,25-33.28,44.29-33,21.76.37,40.44,15.82,45.7,37.86.89,3.71,1.87,7.42,1.84,11.3,0,7.93-4.73,12.76-12.71,12.8-12.83.07-25.67.24-38.49-.09-5.08-.13-5.48,1.84-4.34,5.86,2.53,8.89,5.91,17,15.38,20.8,6.3,2.5,12.12.87,17.7-2.08a44.54,44.54,0,0,0,6.1-4.33c3.61-2.78,7.32-4,11.36-.91,3.53,2.73,5,8.68,2.68,12.67-18,30.79-57.24,35.61-79.46,12.6-6-6.19-9.47-13.95-13-21.64-.39-.86-.93-1.65-1.76-3.1-1.34,10.69-4.58,19.87-11.77,27.27-11.62,12-26.07,12.74-41.22,10.26-4.4-.72-8.65-2.36-13-3.51-4.81-1.28-8.44-3.85-10.28-10.52-2.91,9.49-9.74,9.75-16.6,9.8a90.5,90.5,0,0,0-22.14,3.32c-5.37,1.39-10.32,1.58-13.84-3.57-1.89-2.77-3.23-.3-4.43.43-10.65,6.41-22,7.67-33.53,3.59-15-5.31-21.62-17.29-23.6-32.34-2-15.28.44-30.56.24-45.84,0-2.16-.26-4.32-.23-6.48,0-3.37-1.08-5.25-4.72-6.32-5.27-1.54-7.93-7.26-6.9-12.86a10.67,10.67,0,0,1,10.47-9,146.11,146.11,0,0,0,31.24-2.86c7.23-1.53,12,3.74,11.74,11.58-.65,17.79-2,35.55-1.7,53.37a53.26,53.26,0,0,0,1.92,14.8c1.27,4.13,3.54,8.07,8.47,7.85,4.63-.21,6.49-4.08,7.62-8.13,1.76-6.32,2-12.81,2-19.29,0-10.33.41-20.65-.26-31-.17-2.62-.95-3.7-3.6-4.28-6.45-1.39-9.84-6.19-9.16-12.25s5-9.78,11.73-9.86c9.32-.12,18.58-.38,27.75-2.57,8.54-2,13.56,2.18,13.52,11.09q-.17,36-.67,71.95c-.05,3.86.34,6.27,5.13,6.42C1073.76,465.17,1076.42,468.44,1078.7,472.23Zm-46.62-47H1032c0,7,.38,14-.11,21s-1.57,13.81-6.1,19.58c-2.74,3.49-6.07,5.9-10.63,5.22-6.83-1-12-4.12-14.45-11.27A47.44,47.44,0,0,1,998,445.71a475.61,475.61,0,0,1,1.67-55.14c.53-6.15-1.65-8.12-7.64-7.14-7.47,1.23-14.84,3.52-22.59,2a12.31,12.31,0,0,0-4.44.38c-2,.38-4,.81-4,3.54,0,2.55,1.14,4.14,3.61,4.63a8.48,8.48,0,0,1,7.08,8,177.6,177.6,0,0,1,.65,19.82c-.19,13.9-2.33,27.81.68,41.67,3.52,16.15,17.16,25.34,33.56,22.87,8.74-1.32,14.39-7.13,20.6-12.29,1-.81,1.46-2.47,3.14-1.78s1.73,2.29,1.76,3.82c0,1.17,0,2.33,0,3.5,0,4.22,1.86,5.55,6,4.63,3.23-.71,6.27-2.06,9.68-2.28,6.61-.42,13.19-1.29,19.79-1.92,1.65-.16,2.95-.69,3.22-2.5a4.19,4.19,0,0,0-1.65-4.41,6.71,6.71,0,0,0-3.32-.84c-7.22-1-9.71-4-8.65-11.16a55,55,0,0,0,0-11.77c-.84-12.3,1.26-24.48.65-36.76-.42-8.31,0-16.65,0-25,0-3.12-1.89-4.87-4.84-4.2-9.63,2.21-19.51,1.49-29.22,2.72-2.32.29-3.69,1-3.8,3.57s1.07,3.66,3.27,4.26c7.2,2,8.7,3.79,8.83,11.31C1032.17,411.94,1032.08,418.61,1032.08,425.27ZM1215.51,427v.13c7.5,0,15,0,22.49,0,5.32,0,7.52-2.52,6.73-7.86-.68-4.58-2.4-8.87-4-13.24-5.26-14.8-20.68-26.6-38.08-26-15.12.49-25.46,8.33-32.35,20.47-6.51,11.45-8.76,24.26-8.61,37.73a56,56,0,0,0,7.68,28.42c5.57,9.52,13.68,16,24.69,18.52,12.53,2.85,24.22.46,34.84-6.28,5.45-3.46,9.69-8.59,13.37-14,.86-1.26,1.2-3,0-4.16s-2.78-.29-4,.74c-.5.44-.92,1-1.45,1.37-9.42,6.9-25.1,10.29-35.37.51-9.14-8.71-13-19.66-13.61-32-.15-3.23,1.56-4.37,4.65-4.32C1200.18,427.1,1207.85,427,1215.51,427Zm-72.61-26.11h-.12c0-2.33.12-4.67,0-7-.2-3.22-.72-6.86-4-8-6.24-2.16-12.57-4.63-19.26-4.69-19.72-.18-31.26,11.92-33.27,30.58-1.14,10.53,2.22,19.84,10.74,26.41A75.38,75.38,0,0,0,1117,448.86a27,27,0,0,1,11.25,8c3.73,4.34,3.84,9.73,2,14.6-1.83,4.71-6.07,7.41-11.34,7.73-9.49.57-18.08-5.52-22.43-15.81-1.68-4-3.29-8-5-11.95-.73-1.68-1.57-3.62-3.92-3s-1.52,2.68-1.6,4.2c-.37,6.93,1.31,13.78.3,20.8-.66,4.63,2.27,7.71,7,8.83,4.19,1,8.32,2.29,12.54,3.19,7.28,1.55,15,1.45,21.45-1.57,15.22-7.16,22.18-19.88,20.58-36.87-1.08-11.52-6.59-20.16-16.59-26.2-7.3-4.41-15.48-6.79-22.93-10.8a11,11,0,0,1-6-9.72,10.74,10.74,0,0,1,5.57-10c6.4-3.35,14.41-2,19.85,2.9a36.29,36.29,0,0,1,10.39,15c.51,1.43,1,3.75,3.06,3.36,2.41-.46,1.67-2.88,1.75-4.61C1143,404.92,1142.9,402.92,1142.9,400.92Zm-44.31,47c2.55,9.17,5.08,16.95,12.56,21.79,4.31,2.79,9.88,2,12.13-1.34,2.36-3.48,1.12-7.74-4.08-10.63C1112.91,454.23,1106.2,451.48,1098.59,447.91Zm17.15-52.6c-2.56-.19-4.76.53-5.49,3.17-.48,1.74-.42,3.77,1.63,4.72q7.65,3.55,15.4,6.88c1.22.52,2.78.79,2.54-1.4C1129.15,402.56,1121.57,395.4,1115.74,395.3Z"/><path class="cls-2" d="M787.69,380.07c9.15-6.37,18-9.17,27.88-7.36a37.37,37.37,0,0,1,30.34,33.35c.08.83-.19,1.85.2,2.45.76,1.17-.11,3.5,1.94,3.55,1.37,0,1.52-1.66,2.12-2.83,11.44-22,28.46-36.23,54.3-36.77,28.07-.59,50.38,17.86,55.29,45.61,3.7,20.91-.15,40.16-15,56.19-20.4,22.08-54,25.22-76.58,8.16-1.18-.89-2.44-1.66-3.7-2.51-3.92,8.61-7.1,10.29-19.29,8.89a135.22,135.22,0,0,0-34.32.45,11.42,11.42,0,0,1-3.44.26c-12.93-2.29-26.08-.3-39-2.09-6.37-.88-12.49,1.77-18.83,1.8-6.17,0-10.22-2.65-11.61-8s.61-10,6.14-12.62c4-1.87,3.73-5.1,3.73-8.38q0-43.23,0-86.47c0-9.16-.06-18.33.07-27.49,0-3.46-.93-5.05-4.79-5.15A10.15,10.15,0,0,1,733,332c-.62-6.13,2.37-11,8.52-12.21a95.45,95.45,0,0,0,32.86-12.54c6.32-3.94,13.21,1.18,13.26,9.32.1,17.83.07,35.65.1,53.48C787.69,373,787.69,376,787.69,380.07ZM780.8,353c0-12.67,0-23.17,0-33.66,0-1.76.55-3.88-1.69-4.77-2-.78-3.58.31-5,1.53-1.79,1.57-3.94,2.3-6.06,3.26-7.59,3.43-15.3,6.22-23.63,7.33a4.56,4.56,0,0,0-4.29,4.76c.11,2.74,2.58,2.85,4.37,3.3,9,2.24,10.47,4,10.48,13.16,0,38-.08,76,.23,113.94.05,6.13-2.41,10.07-7,13.2-2.13,1.46-4,2.95-2.74,5.55,1.15,2.32,3.59,2.6,6.09,2.1a81.75,81.75,0,0,1,19.8-1.61c6.63.31,13.22,1.35,19.89,1.1,3-.11,6.08,0,6.34-3.89.23-3.44-2.87-3.58-5.26-4.07-7.87-1.62-10.4-4.07-11.61-12.11-1.82-12.08-.41-24.26-.81-36.39a49.18,49.18,0,0,1,2.1-16.22c1.77-5.67,5.73-10.07,11.69-11.07a14,14,0,0,1,13.85,5.16c5.81,7.61,7,16.62,6.86,25.91-.18,10.94-.72,21.87.22,32.83.42,4.82-.67,9.54-5.83,12.13-2.22,1.12-4.69,2.88-3.51,5.81,1.11,2.75,3.9,2.18,6.47,2.14,7-.11,13.93-2.11,20.86-1.08,6.66,1,13.28.48,19.91.74,1.31,0,2.86.15,3.2-1.62s.35-3.28-1-4.68c-1.13-1.21-2.62-1.29-4-1.7-7.94-2.27-10.78-6-10.82-14.34-.06-15,.25-30-.2-45-.33-11.07-3.65-21.41-12.53-28.74-11.71-9.66-26.88-7.8-38.43,3.91-2,2-3.76,6.11-6.83,4.57-2.38-1.19-1.92-5.57-1.67-8.28C781.37,374.4,780.36,362.59,780.8,353Zm121.75,27c-14.81-1-28.31,8.47-38.22,21.32a51,51,0,0,0-10,26.06c-1.92,17.7,1.87,33.72,14.83,46.21,16.25,15.67,37.27,16.47,55.43,7.27,12.68-6.43,22.67-16.62,26.68-31.74,4.23-15.94,3.44-31.25-4.4-45.34C938.09,388.09,923.87,380,902.56,380Zm-95.49,62.73h-.24c0-6.83.3-13.67-.1-20.48-.3-5.1-1-10.33-4.79-14.38-4.38-4.73-10.21-3.64-12.69,2.24-1.26,3-1.19,6.15-1.58,9.28-1.48,11.63.07,23.22.08,34.83,0,10,0,10,9.71,13,.47.15.91.39,1.37.58,5.05,2.11,8.12.28,8.21-5.1C807.15,456.08,807.06,449.42,807.06,442.75Zm40.86,10c-1.23,11.63-.5,13.11,5.61,13Z"/><path class="cls-2" d="M574.15,412.66c4.46-4.23,8.06-7.67,11.68-11.09,1.37-1.3,2-2.47.34-4.17a12.94,12.94,0,0,1-2.18-3.86c-1.79-4.06-1.84-8.09.75-11.84,2.77-4,6.74-5.09,11.4-4.38a107.12,107.12,0,0,0,28.81.08c10-1.18,16.12,4.89,14.19,13.88-1.08,5-4.72,7.28-9.17,7.94-10.59,1.56-18,8-25,15.24-1.74,1.8-1.94,3.22-.77,5.19,7.49,12.57,14.82,25.23,22.5,37.69a22.78,22.78,0,0,0,13.1,10.17c6,1.83,8.93,6.93,7.9,12.73s-5.41,9.52-11.86,9c-10.12-.85-20.13-1.65-30.3.12-6.62,1.15-10.5-3.88-14.45-9-4,11.73-13.5,8.82-21.59,8.17-10.35-.84-20.55-1.19-30.8.8-6.58,1.28-11.26-1.41-13.2-6.94-2-5.72.09-10.95,6.14-14,2.7-1.35,3-3.49,2.95-5.75-.23-26.64.45-53.29-.46-79.93-.41-12-.19-24,0-36,.06-3.72-.8-5.45-4.95-5.37a9.38,9.38,0,0,1-9.38-8c-.89-5.79,1.33-10.38,6.39-12.09,4.24-1.43,8.75-2,13-3.48a89.55,89.55,0,0,0,17.66-8c9.88-6,16.32-2.22,16.37,9.46.06,14.16-.46,28.35.2,42.48C574.14,378.26,573.51,394.86,574.15,412.66Zm-8.25-42H566q0-25,0-50c0-1.93.59-4.29-1.79-5.24-2.07-.82-3.82.48-5.49,1.63a51.56,51.56,0,0,1-18.39,8.32,94.27,94.27,0,0,0-10.53,3,3.71,3.71,0,0,0-2.72,3.79c.07,2.12,1.92,2,3.24,2.48a9.21,9.21,0,0,0,2.95.41c5,0,7.19,3.16,7.75,7.46a112.72,112.72,0,0,1,.92,14.39q.11,52.47,0,104.93c0,5.49.28,11.51-6.77,14-2.08.72-2.76,3-1.91,5.09s2.72,1.77,4.68,1.43a100.7,100.7,0,0,1,20.86-1.24c5,.18,9.93.94,14.89.86,3.15-.05,8.14,2.12,8.95-2.61s-4.25-5-7.63-6.17c-6.1-2.05-8-4.81-8.09-11.51,0-3.5.51-7.15-.32-10.45-1.51-6,.41-10.25,4.73-14.18,2.47-2.25,3.5-1.87,5.18.87A434.43,434.43,0,0,1,597.78,477c1.83,3.82,4.54,5.8,8.66,5.12,9.45-1.56,18.87-.73,28.31,0,1.9.14,4.27.69,5-2s-.87-4.3-3-5c-11.46-4-17-13.64-22.93-23.11-6.31-10.07-11-21-17.73-30.89-1.24-1.81-3.21-4.34-.82-6.77,4.54-4.6,9-9.38,13.9-13.5,5.52-4.61,11.8-8,19.28-8.51,2.06-.13,3.63-1,3.37-3.41a3.86,3.86,0,0,0-4-3.65,9.55,9.55,0,0,0-2,0c-9.76,1.51-19.51,1-29.28.06-2-.19-4.58-.79-5.5,2.08-1,3.27,1.67,3.71,3.67,4.8,4.48,2.44,4.93,6.93,1.47,10.57-7.08,7.45-15.41,13.58-22.16,21.37-1.68,1.95-3.91,2.75-6.28,1.78s-1.82-3.3-1.82-5.26Q565.89,395.62,565.9,370.64Zm17.77,96.16A89.63,89.63,0,0,0,574.18,450C573.32,465,574.37,466.82,583.67,466.8Z"/><path class="cls-2" d="M395.56,391.34c14.28,6.66,22.44,17.67,25,32.54,5.14,30.23-14.73,60.65-45.82,65.36-14.54,2.2-28.87.36-43.28-.3-12.12-.56-24.23-1.68-36.3.8a10.84,10.84,0,0,1-12.28-5.52,12.24,12.24,0,0,1,2-13.86c1-1.08,2.16-2.49,3.46-2.76,8.33-1.75,8.13-7.71,8.06-14.37-.32-33-.29-65.95-.45-98.92a41.67,41.67,0,0,0-1-7.9c-.74-3.71-2.58-6.4-6.85-6.7a42.75,42.75,0,0,1-6.36-1.17c-6.25-1.42-8.87-4.86-8.73-11.35.12-5.83,3.71-9.9,9.57-11,8.43-1.6,16.93-1.12,25.33-.31,14.23,1.37,28.21-.7,42.28-1.9a86.62,86.62,0,0,1,30.68,2.52c18.67,5.16,31.24,25.07,29,45.84C408.57,373.78,405.26,380.62,395.56,391.34Zm-97.69-68.22c-4.75.65-9.66-.87-14.34,1-1.8.74-3.26,1.74-3.36,3.87-.12,2.34,1.63,3.1,3.4,3.71a18.23,18.23,0,0,0,6.31,1.31c3.6-.08,6.12,1.73,8.45,4.39,3.42,3.9,4.42,8.57,4.58,13.37.5,15.29.9,30.58.93,45.87,0,6.62-1.46,13.29-.54,19.88a53.35,53.35,0,0,1,.36,14.4,90.57,90.57,0,0,0-.29,21.91c1.06,9.56,1.1,17.59-10.22,21-2.32.7-4.87,3.32-3.36,6.81,1.34,3.1,3.85,2.17,6.4,1.89,6.58-.72,13.12-1.69,19.8-1.46,17.52.6,35,3.43,52.57,1.93,8.38-.72,16.46-2.59,23.38-7.5,15.44-11,22.25-26.3,21.91-45-.24-13.3-9.79-26.75-22.18-31.72-3-1.18-6.07-1.76-9-2.93-1.44-.58-4,.15-4.2-1.85s2.18-2.22,3.57-2.93a37.79,37.79,0,0,0,11.07-8.21c8.37-9.17,10.73-19.92,8.82-31.82-1.88-11.67-8.28-20.77-18.72-25.61-10.68-5-22.48-4.73-34.24-3.67-9.9.89-19.7,2.82-29.74,2.54C312.1,324.17,305.05,322.56,297.87,323.13Z"/><path class="cls-2" d="M507.81,435.86c0,7.17.09,14.33,0,21.49-.05,2.86.28,4.5,3.81,3.57,5-1.34,8.9.93,11.3,5.15s1.51,8.34-1.73,11.94c-7,7.75-14.91,13.67-25.85,14.2a21.5,21.5,0,0,1-16.73-6.29c-2.44-2.41-4-2.21-6.63-.38-6.91,4.78-14.37,8.39-23.05,8.48-14.95.16-26.48-9.48-29-24.24-3.87-22.53,7.08-40.14,29.62-47.49,4.89-1.6,9.83-3.1,14.82-4.36,3.13-.79,4.34-2.33,4-5.6-.52-5.14-.66-10.33-4.18-14.57-.84-1-1.93-2.12-3.38-1.55s-.74,2-.79,3.11c-.67,16.31-13.49,26.21-29.73,22.91-4.83-1-8.64-6-8.77-12-.32-14.9,5.78-26.23,19.51-32.53,16.31-7.49,32.86-8.06,48.89.81,11.16,6.18,15.59,16.8,17.16,28.87C508.26,416.87,507.58,426.38,507.81,435.86Zm-7,6.41c.66-11.49-.33-23-1.17-34.38a28.88,28.88,0,0,0-9.16-19.28c-9.76-9-21.79-9.94-34.06-7.91-14,2.32-24.82,8.52-27,24.46-1.15,8.44.78,11.31,8.94,9.72,10.27-2,16.09-3.63,14.4-16.26a12.55,12.55,0,0,1,0-3.49c.57-3.79,2.76-6,6.67-6.11a12.69,12.69,0,0,1,10.45,4.78c6,6.85,4.94,15.09,5.33,23.2.24,5-2.23,7.25-6.32,7.91-6.81,1.1-13,4.16-19.49,6-15.55,4.26-26.54,21.77-22.39,38.1,3.24,12.76,13.85,22.71,28.58,17.37a55.73,55.73,0,0,0,17.54-10.28c3.41-2.94,5.42-2.26,7.4,1.24a15,15,0,0,0,9.89,7.7c11,2.49,18.09-4.28,25-11,2.53-2.46,1.39-4.49-2.17-4.84a24.88,24.88,0,0,0-2.5,0c-7.2,0-9.88-2.63-9.93-9.94C500.8,453.6,500.83,447.93,500.83,442.27Z"/><path class="cls-2" d="M704.24,434.37c-7.16,0-14.33.08-21.49,0-3.22-.05-4,1.07-3.19,4.17a49.25,49.25,0,0,0,4.1,11.71c7.19,13.14,22.11,15.83,34,6.27,6.78-5.47,11.29-6.06,15.31-2s3.65,9.91-1.32,16.09c-14.91,18.55-33.77,26.53-57.34,20.68-15.32-3.81-25.55-14.06-31.24-28.4-10.08-25.39-7.45-50,8.56-72,21.46-29.45,59.87-20.41,75.09,1.8,5.83,8.51,9.82,17.79,10.09,28.26.23,8.75-4.4,13.31-13,13.38-3.33,0-6.66,0-10,0h-9.5Zm9.6-6.29c2.33,0,4.66,0,7,0,7.66,0,11-3.82,8.65-11.09-3.44-10.66-7.6-20.78-17.14-28.21-17.27-13.44-42.24-11.08-54.74,6.72-13.45,19.16-16.37,40.32-8.48,62.41,4.27,12,12,21.77,24.52,25.89,21,6.91,41.33-1.26,53.36-18.45.89-1.28,2.56-2.68.84-4.32-1.44-1.38-3.2-.87-4.5.38-4.74,4.57-10.62,6.5-16.86,7.87a23.67,23.67,0,0,1-21.3-5.46c-8.61-7.4-11.75-17.72-13.53-28.57-1.06-6.44.25-7.94,6.81-8.12C690.27,426.81,702,427.56,713.84,428.07Z"/><path class="cls-3" d="M794.1,179c7.26,5.19,7.93,9.53,3.55,14.8-3.31,4-7.82,6-12.61,7.61-2.64.88-5.22,1.91-7.92,2.91,1.23,2.46,3.57,2.95,5.11,4.43,10.11,9.72,10.47,24.63,1.23,35.46a34.81,34.81,0,0,1-41.72,9c-21.42-10.35-24.08-35.42-5.64-51.13,3.14-2.67,4.59-4.52,2.77-8.95-2.6-6.34,3.27-13.48,11-14.88,4-.72,8.1,1.2,12-1.25,1.54-1,2.9.5,2.85,2.75-.13,5.66,0,11.32,0,17,0,1.69-.31,3-2.39,3S760,198.5,760,196.79c0-3-.19-6-.49-8.95-.33-3.27-2.47-5-5.53-5.56-2.54-.43-4.54.83-5.88,2.92-1.68,2.62-.91,5,.85,7.36,3.34,4.45,3,5.69-2,7.7-6.65,2.69-11,7.48-12.54,14.46-2.51,11.27.35,21.19,8.59,29.25,7.55,7.38,19.25,9.27,27.14,4.86,8.59-4.8,12.3-14.22,10.37-25.43-1.18-6.87-3.87-12.35-11-14.6-5.35-1.69-11,.61-14.64,5.88-3,4.44-3.1,12.47.1,16,2.23,2.46,5,4.29,8.16,1.46,1.21-1.07,2.38-1.38,3.56-.59,1.39.93.72,2.4.39,3.67-1.31,5.11-7.2,7.75-12.4,5.57-8.74-3.67-11.85-15.27-6.7-24.31,3.44-6,8.73-9.93,14.49-13.37,7.3-4.35,15.24-7.37,22.94-10.89C790.76,189.78,797.09,188.5,794.1,179Z"/><path class="cls-3" d="M508.88,191.35c0,4.16,0,8.32,0,12.48,0,1.7-.35,2.89-2.45,2.9-1.95,0-2.15-1.19-2.15-2.61,0-8-2.13-14.9-10.2-18.31-9.26-3.92-18.51-3.64-27.28,1.36-11.83,6.74-16.88,20.41-12.62,35.09,3.94,13.58,11.45,24.35,26,28.33,10.57,2.89,19.67-.53,27.86-7.11,1.47-1.18,2.35-2.61,4.25-.32,2.08,2.5-.18,3.39-1.36,4.29-22.16,16.76-55.49,10.72-66.45-16.22-7.14-17.56,2.05-40.66,19.18-48.84,11.84-5.65,23.69-5.81,35.75-1.34,3.13,1.16,5.1,1.34,4.84-2.84-.1-1.66.72-2.47,2.37-2.39s2.32.88,2.29,2.56C508.83,182.7,508.88,187,508.88,191.35Z"/><path class="cls-3" d="M535,230.51c0,4.33,0,8.66,0,13-.05,3.62-.21,7.21,4.76,7.71,1.09.11,1.25.9,1.2,1.81a1.46,1.46,0,0,1-1.63,1.48q-8.47.12-16.94.18a1.25,1.25,0,0,1-1.29-1.24c-.11-1.1.18-2.11,1.44-2.19,2.76-.18,2.52-2.19,2.53-4q0-28.49.06-57c0-2-.09-2.91-2.72-2.53-2.26.33-2.81-1.41-1.07-3.13,3.67-3.62,7.4-7.19,11.12-10.76.86-.82,1.83-1.66,3.06-.76,1.5,1.09,0,2-.31,3a10.7,10.7,0,0,0-.79,3.34c0,7.65.08,15.3,0,22.94,0,3.24.7,4.86,4.14,2.69a10,10,0,0,1,2.79-1.07c10-2.63,17.29,2.94,17.36,13.24.05,8.49-.1,17,0,25.47,0,3.57-.42,7.68,4.78,8.48,1,.15,1.32.91,1.13,1.85a1.67,1.67,0,0,1-1.82,1.35c-5.32.05-10.65.09-16,.07-.81,0-1.72-.18-2-1.17a1.55,1.55,0,0,1,1.45-2.11c2.73-.22,2.49-2.09,2.49-4,0-10.33.07-20.66,0-31,0-5.22-2.72-8.26-6.74-8.12-4.44.16-7,3.2-7,8.42,0,4.66,0,9.32,0,14Z"/><path class="cls-3" d="M854.31,218.67c0-8.8,0-17.61,0-26.41,0-4.32-.61-8.13-6.16-8.27-1.66,0-1.79-1.09-1.76-2.37a1.85,1.85,0,0,1,2.14-2.09c8,0,16,0,24,0,1.66,0,2.32.94,2.27,2.57a1.75,1.75,0,0,1-2.29,1.88c-7.23-1.27-6.89,3.33-6.84,8.27.15,16.15,0,32.3.12,48.45,0,3.57-1.33,8.23,4.23,9.17a11.27,11.27,0,0,0,12.09-7.6c1.64-5.39.5-10.93.92-16.39.13-1.68-1.23-4.35,2.25-4.44,3.32-.09,2.6,2.43,2.61,4.23.07,9.82,0,19.64,0,29.47,0,1.55.51,3.57-2,3.89-1.9.25-2.69-.91-3-2.6-.45-2.67-2.55-2.16-4.3-2.17-9.48-.08-19-.08-28.45-.21-1.41,0-3.57,1.08-3.82-1.71s1.65-2.74,3.6-2.55c3.48.34,4.57-1.35,4.51-4.69-.15-8.81-.05-17.62-.05-26.43Z"/><path class="cls-3" d="M919.32,255.65c-15.88-.42-27.56-11.68-27.22-26.25A26.79,26.79,0,0,1,920,203.1c16.17.44,27.31,11.93,26.92,27.67C946.58,244.11,933.5,257,919.32,255.65ZM939,232.72a28,28,0,0,0-11.19-20.5c-6.21-4.76-13.39-6.37-20.46-2.64-5.77,3-7.69,9.15-7.27,15.33.72,10.53,5.21,19.07,14.95,24.26C926.54,255.3,939.22,247.63,939,232.72Z"/><path class="cls-3" d="M650.13,227.72c-2.42-2.46-4.77-4.08-6-6.68-4.06-8.58,2.41-18,12.23-17.69a20.27,20.27,0,0,1,6.35,1.2c2.2.83,3.43,1,3.36-1.9,0-1.41.81-2.15,2.28-1.88,1.25.23,1.41,1.16,1.41,2.25,0,5,.06,10,0,15,0,1.35-.19,2.77-2.06,2.82-2.29.06-1.5-1.82-1.67-2.91-1.31-8.34-5.18-11.76-11.37-10-2.48.7-4.15,2.1-4.58,4.69s1.24,4.13,3.24,5.07c4.05,1.92,8.21,3.62,12.35,5.37,6.76,2.85,11.82,7.39,11.6,15.13s-4.92,12.91-11.94,15.79a25.29,25.29,0,0,1-20.86-.52c-6.44-3-9.72-9.21-8.63-15.34C637,231.48,640.77,228.66,650.13,227.72Zm3.83,1.8c1.89,3.12,2.83,5.79,2,8.65a4.81,4.81,0,0,1-5.23,3.72c-2.68-.27-2.63-2.3-2.08-4.53.48-2-.21-3.95-2.4-4.2a5.15,5.15,0,0,0-5.72,3.11c-1.58,3.84-.38,7.15,2.32,10,4.52,4.82,14.91,6.73,20.89,3.76,3.62-1.8,6.2-4.48,6.22-8.84,0-4.15-2.22-6.71-5.83-8.46A30.37,30.37,0,0,0,654,229.53Z"/><path class="cls-3" d="M1051.23,227.81c0-1.6-1-2-1.66-2.69-4.54-4.3-5.84-10-3.42-14.89s9.15-7.88,14.85-6.78c2.78.54,6.2,3.66,7.42-2.23.3-1.47,3.15-1,3.25.8.33,5.63.18,11.29.14,16.94,0,1.21-1,1.59-2.09,1.64-2.2.08-1.84-1.66-1.77-2.81.27-4.7-1.39-7.92-6-9.63-3.52-1.29-7.92-.18-9.25,3-1.54,3.73.89,5.62,3.77,6.92,3.77,1.71,7.71,3,11.48,4.75,6.23,2.83,11.05,7,11.24,14.44s-3.63,12.61-10.1,15.81c-7.47,3.69-15.11,3.52-22.62,0a14.47,14.47,0,0,1-8.43-15.47C1039.09,231.56,1043.39,228.32,1051.23,227.81Zm4.37.69c2.25,4.32,3.68,7.44,1.62,10.95a4.47,4.47,0,0,1-4.6,2.33c-2.32-.29-1.92-2.27-1.79-3.93.17-2.22.41-4.5-2.8-4.76-2.87-.23-4.75.91-5.66,3.74-1.08,3.39-.1,6.2,2.14,8.72,5.14,5.76,15.49,7.47,22.43,3.75a9.24,9.24,0,0,0,5.18-8.49,8.57,8.57,0,0,0-5.28-7.86C1063.59,231.44,1060.16,230.29,1055.6,228.5Z"/><path class="cls-2" d="M261.17,141.92c-.79,4.53-3.65,8.42-7,11.94-5.82,6.2-12.91,11.14-21.19,12.32-13.18,1.88-25,7.62-37.37,11.54-1.41.45-3.2,2.19-4.45.24s.41-3.46,1.55-4.85c9.19-11.19,21.31-17.65,34.91-21.87,9.95-3.09,20.2-5.62,28.05-13.22,1.08-1,2.18-1.06,3.54-.11C261.09,139.22,261.27,139.24,261.17,141.92Z"/><path class="cls-1" d="M364.7,254.08c1.35,8.2,3.46,25.45,4.86,33.92-5.6.25-10.43-2.29-15.51-3.59-32.93-8.45-62.81-1.81-90.16,18.25-5.78,4.24-9.8,9.23-14.88,14.31-1.71,1.71-22.28,26.08-25.81,26.13,8.88-11.5,37.77-42.15,49.23-49.65C288.35,283,305.26,275,324.83,274.3a98.52,98.52,0,0,1,36.31,5.36c4.59,1.59,5.62.59,4.71-4.52-.7-3.91-2.4-16.21-3.07-20.12C363.32,254.94,364.15,254.17,364.7,254.08Z"/><path class="cls-3" d="M1003.41,227.14c0,5.81,0,11.61,0,17.42,0,3.15.85,5.61,4.32,6.24,1.26.23,2.31.45,2.1,2.07s-1.62,1.38-2.7,1.39c-5,.05-10,0-14.94,0-1.14,0-2.51.16-2.8-1.38s.77-1.94,2.08-2.09c1.82-.2,1.88-1.68,1.89-3q.15-14.17.19-28.34c0-1.47.16-2.8-2.51-1.88-2.22.77-2.9-1.36-1.31-3,4-4,8.15-7.79,12.25-11.66.64-.6,1.36-1,2.17-.29.63.56,1.4,1.34.88,2.11-3.28,4.86-1,10.27-1.61,15.38a59.88,59.88,0,0,0,0,7Z"/><path class="cls-3" d="M618.78,254.36c-2.5,0-5,0-7.49,0-1,0-2,0-2.29-1.34s.36-1.89,1.55-2c2.41-.16,2.33-1.87,2.33-3.61,0-9,.11-18,0-27,0-1,1.1-3.45-1.87-2.82-3.76.8-2.74-1.85-1.65-3,3.87-4.09,8.09-7.85,12.16-11.74a1.43,1.43,0,0,1,2.18,0c.79.7,1.47,1.5.47,2.49-1.94,1.92-1.32,4.38-1.33,6.63-.07,10.49,0,21,0,31.48,0,3.52.22,6.82,4.64,7.57a1.48,1.48,0,0,1,1.39,1.69c0,1.41-1.07,1.47-2.1,1.48h-8Z"/><path class="cls-3" d="M1029.15,187.59c-.08,3.71-2.86,7.06-6.49,9.92-.93.73-1.93,1.51-3,.34-.83-.88-.41-1.86.11-2.72,1.21-2,2.71-3.58-.25-5.73-2.65-1.93-3-5-1.17-8a5,5,0,0,1,6.49-2.08C1027.79,180.47,1029.37,183,1029.15,187.59Z"/><path class="cls-3" d="M612.78,187.07c.07-3.58,1.92-5.32,5-5.29a4.64,4.64,0,0,1,4.88,4.69c.09,3.38-2.26,5.31-5.41,5.21C614.56,191.6,612.59,189.92,612.78,187.07Z"/><path class="cls-3" d="M1003.31,186.47c-.6,3.07-2.27,5.15-5.32,5s-5-1.89-4.63-5.24c.29-2.8,1.64-4.72,4.77-4.57S1002.88,183.57,1003.31,186.47Z"/><path class="cls-3" d="M1032.08,425.27c0-6.66.09-13.33,0-20-.13-7.52-1.63-9.34-8.83-11.31-2.2-.6-3.37-1.78-3.27-4.26s1.47-3.28,3.8-3.57c9.71-1.23,19.58-.51,29.22-2.72,2.95-.67,4.83,1.08,4.84,4.2,0,8.33-.44,16.68,0,25,.61,12.27-1.49,24.46-.65,36.76a55,55,0,0,1,0,11.77c-1.05,7.18,1.44,10.13,8.65,11.16a6.71,6.71,0,0,1,3.32.84,4.19,4.19,0,0,1,1.65,4.41c-.27,1.81-1.57,2.34-3.22,2.5-6.6.64-13.18,1.51-19.79,1.92-3.41.22-6.44,1.57-9.68,2.28-4.17.91-6.07-.41-6-4.63,0-1.17,0-2.33,0-3.5,0-1.52-.1-3.13-1.76-3.82s-2.17,1-3.14,1.78c-6.22,5.16-11.86,11-20.6,12.29-16.4,2.47-30-6.72-33.56-22.87-3-13.86-.87-27.77-.68-41.67a177.6,177.6,0,0,0-.65-19.82,8.48,8.48,0,0,0-7.08-8c-2.47-.49-3.64-2.08-3.61-4.63,0-2.73,2-3.17,4-3.54a12.31,12.31,0,0,1,4.44-.38c7.74,1.5,15.12-.79,22.59-2,6-1,8.17,1,7.64,7.14A475.61,475.61,0,0,0,998,445.71a47.44,47.44,0,0,0,2.71,14.07c2.48,7.15,7.61,10.26,14.45,11.27,4.56.68,7.88-1.73,10.63-5.22,4.53-5.77,5.62-12.67,6.1-19.58s.11-14,.11-21Z"/><path class="cls-3" d="M1215.51,427c-7.66,0-15.33.07-23,0-3.09,0-4.8,1.1-4.65,4.32.58,12.35,4.46,23.29,13.61,32,10.26,9.78,25.95,6.39,35.37-.51.53-.39,1-.93,1.45-1.37,1.18-1,2.61-2,4-.74s.89,2.91,0,4.16c-3.68,5.39-7.92,10.52-13.37,14-10.62,6.75-22.31,9.13-34.84,6.28-11-2.5-19.12-9-24.69-18.52a56,56,0,0,1-7.68-28.42c-.15-13.47,2.1-26.28,8.61-37.73,6.9-12.13,17.23-20,32.35-20.47,17.4-.57,32.82,11.23,38.08,26,1.55,4.37,3.27,8.66,4,13.24.8,5.34-1.41,7.82-6.73,7.86-7.5.06-15,0-22.49,0Zm-9.33-7.9h4.67c7,0,8-1.16,8.21-8s-2.46-13-6.16-18.5c-4.33-6.42-10.47-7.19-16.27-2.69-5.28,4.1-10.54,20.32-8.67,26.43.51,1.66,1.65,2,3,1.94C1196.3,418.08,1201.52,419.79,1206.18,419.13Z"/><path class="cls-3" d="M1142.9,400.92c0,2,.07,4,0,6-.07,1.73.67,4.14-1.75,4.61-2.07.4-2.55-1.92-3.06-3.36a36.29,36.29,0,0,0-10.39-15c-5.44-4.89-13.44-6.25-19.85-2.9a10.74,10.74,0,0,0-5.57,10,11,11,0,0,0,6,9.72c7.45,4,15.63,6.39,22.93,10.8,10,6,15.51,14.68,16.59,26.2,1.6,17-5.36,29.7-20.58,36.87-6.42,3-14.17,3.12-21.45,1.57-4.21-.9-8.34-2.19-12.54-3.19-4.71-1.12-7.64-4.2-7-8.83,1-7-.67-13.87-.3-20.8.08-1.53-.67-3.65,1.6-4.2s3.18,1.37,3.92,3c1.72,4,3.33,8,5,11.95,4.35,10.29,12.94,16.38,22.43,15.81,5.28-.32,9.51-3,11.34-7.73,1.89-4.87,1.77-10.26-2-14.6a27,27,0,0,0-11.25-8,75.38,75.38,0,0,1-20.13-10.64c-8.51-6.57-11.87-15.88-10.74-26.41,2-18.66,13.55-30.76,33.27-30.58,6.69.06,13,2.53,19.26,4.69,3.33,1.15,3.84,4.78,4,8,.15,2.32,0,4.66,0,7Z"/><path class="cls-4" d="M1098.59,447.91c7.61,3.58,14.32,6.32,20.61,9.82,5.2,2.88,6.44,7.15,4.08,10.63-2.25,3.32-7.82,4.13-12.13,1.34C1103.67,464.85,1101.14,457.07,1098.59,447.91Z"/><path class="cls-4" d="M1115.74,395.3c5.83.1,13.42,7.26,14.08,13.38.24,2.19-1.32,1.92-2.54,1.4q-7.74-3.34-15.4-6.88c-2-.95-2.11-3-1.63-4.72C1111,395.83,1113.18,395.12,1115.74,395.3Z"/><path class="cls-3" d="M780.8,353c-.44,9.62.57,21.43-.53,33.25-.25,2.71-.72,7.09,1.67,8.28,3.08,1.53,4.87-2.58,6.83-4.57,11.55-11.71,26.73-13.56,38.43-3.91,8.88,7.32,12.2,17.66,12.53,28.74.45,15,.14,30,.2,45,0,8.33,2.87,12.06,10.82,14.34,1.43.41,2.92.49,4,1.7,1.32,1.41,1.28,3,1,4.68s-1.88,1.67-3.2,1.62c-6.63-.25-13.25.26-19.91-.74-6.93-1-13.88,1-20.86,1.08-2.57,0-5.36.61-6.47-2.14-1.18-2.93,1.29-4.69,3.51-5.81,5.16-2.59,6.24-7.31,5.83-12.13-.94-11-.41-21.89-.22-32.83.16-9.3-1.06-18.3-6.86-25.91a14,14,0,0,0-13.85-5.16c-6,1-9.92,5.4-11.69,11.07a49.18,49.18,0,0,0-2.1,16.22c.39,12.13-1,24.31.81,36.39,1.21,8,3.74,10.49,11.61,12.11,2.39.49,5.49.63,5.26,4.07-.25,3.85-3.37,3.78-6.34,3.89-6.67.25-13.26-.79-19.89-1.1a81.75,81.75,0,0,0-19.8,1.61c-2.51.5-4.94.22-6.09-2.1-1.29-2.61.61-4.09,2.74-5.55,4.54-3.12,7-7.07,7-13.2-.31-38-.19-76-.23-113.94,0-9.17-1.52-10.92-10.48-13.16-1.8-.45-4.27-.55-4.37-3.3a4.56,4.56,0,0,1,4.29-4.76c8.33-1.11,16-3.9,23.63-7.33,2.12-1,4.27-1.69,6.06-3.26,1.39-1.22,3-2.31,5-1.53,2.24.89,1.69,3,1.69,4.77C780.82,329.81,780.8,340.3,780.8,353Z"/><path class="cls-3" d="M902.56,380c21.32,0,35.53,8.07,44.28,23.78,7.84,14.08,8.63,29.4,4.4,45.34-4,15.12-14,25.31-26.68,31.74-18.16,9.2-39.18,8.4-55.43-7.27-13-12.49-16.75-28.51-14.83-46.21a51,51,0,0,1,10-26.06C874.25,388.49,887.75,379.06,902.56,380ZM927,441.26c0-16.72-3.62-31.14-9.34-41.85-2.47-4.63-6-8.53-11.07-10.28-12-4.14-21.4,3.44-24.7,16.33-3.4,13.3-2.35,26.74.29,40,1.58,7.9,2.85,16,7.67,22.94,5.89,8.45,13.71,12.37,21.93,9.77,6.34-2,10.19-7,12.18-13.31A67.59,67.59,0,0,0,927,441.26Z"/><path class="cls-4" d="M807.06,442.75c0,6.66.09,13.33,0,20-.09,5.38-3.16,7.21-8.21,5.1-.46-.19-.9-.43-1.37-.58-9.7-3-9.71-3-9.71-13,0-11.61-1.55-23.2-.08-34.83.4-3.13.32-6.28,1.58-9.28,2.48-5.89,8.31-7,12.69-2.24,3.75,4,4.48,9.28,4.79,14.38.4,6.8.1,13.65.1,20.48Z"/><path class="cls-4" d="M847.92,452.77l5.61,13C847.41,465.88,846.68,464.4,847.92,452.77Z"/><path class="cls-3" d="M565.9,370.64q0,25,0,50c0,2-.51,4.3,1.82,5.26s4.6.17,6.28-1.78c6.74-7.79,15.08-13.92,22.16-21.37,3.46-3.64,3-8.13-1.47-10.57-2-1.09-4.72-1.54-3.67-4.8.92-2.87,3.51-2.27,5.5-2.08,9.77.92,19.52,1.45,29.28-.06a9.55,9.55,0,0,1,2,0,3.86,3.86,0,0,1,4,3.65c.26,2.37-1.31,3.29-3.37,3.41-7.48.47-13.76,3.9-19.28,8.51-4.95,4.13-9.36,8.9-13.9,13.5-2.39,2.43-.42,5,.82,6.77,6.73,9.84,11.42,20.81,17.73,30.89,5.94,9.48,11.47,19.14,22.93,23.11,2.15.74,3.74,2.46,3,5s-3.11,2.11-5,2c-9.44-.69-18.86-1.52-28.31,0-4.13.68-6.83-1.29-8.66-5.12a434.43,434.43,0,0,0-21.34-39.12c-1.67-2.73-2.71-3.12-5.18-.87-4.32,3.93-6.24,8.19-4.73,14.18.83,3.3.29,7,.32,10.45.07,6.7,2,9.46,8.09,11.51,3.37,1.14,8.42,1.52,7.63,6.17s-5.8,2.55-8.95,2.61c-5,.08-9.92-.68-14.89-.86a100.7,100.7,0,0,0-20.86,1.24c-2,.34-3.83.65-4.68-1.43s-.17-4.37,1.91-5.09c7.05-2.45,6.75-8.47,6.77-14q.22-52.47,0-104.93a112.72,112.72,0,0,0-.92-14.39c-.56-4.3-2.74-7.47-7.75-7.46a9.21,9.21,0,0,1-2.95-.41c-1.32-.45-3.16-.35-3.24-2.48a3.71,3.71,0,0,1,2.72-3.79,94.27,94.27,0,0,1,10.53-3,51.56,51.56,0,0,0,18.39-8.32c1.68-1.15,3.42-2.45,5.49-1.63,2.39,1,1.79,3.32,1.79,5.24q0,25,0,50Z"/><path class="cls-4" d="M583.67,466.8c-9.3,0-10.35-1.81-9.49-16.84A89.63,89.63,0,0,1,583.67,466.8Z"/><path class="cls-3" d="M297.87,323.13c7.18-.56,14.24,1,21.39,1.24,10,.28,19.84-1.65,29.74-2.54,11.76-1.06,23.56-1.28,34.24,3.67,10.44,4.84,16.85,13.95,18.72,25.61,1.91,11.9-.44,22.65-8.82,31.82a37.79,37.79,0,0,1-11.07,8.21c-1.38.7-3.79,1-3.57,2.93s2.76,1.27,4.2,1.85c2.9,1.17,6,1.74,9,2.93,12.39,5,21.94,18.42,22.18,31.72.33,18.71-6.47,34.05-21.91,45-6.92,4.91-15,6.78-23.38,7.5-17.6,1.5-35-1.33-52.57-1.93-6.69-.23-13.23.75-19.8,1.46-2.55.28-5.06,1.21-6.4-1.89-1.51-3.49,1-6.11,3.36-6.81,11.32-3.42,11.28-11.45,10.22-21a90.57,90.57,0,0,1,.29-21.91,53.35,53.35,0,0,0-.36-14.4c-.92-6.6.55-13.26.54-19.88,0-15.29-.43-30.59-.93-45.87-.16-4.8-1.15-9.46-4.58-13.37-2.34-2.66-4.85-4.48-8.45-4.39a18.23,18.23,0,0,1-6.31-1.31c-1.78-.6-3.52-1.37-3.4-3.71.11-2.13,1.57-3.14,3.36-3.87C288.2,322.25,293.11,323.77,297.87,323.13Zm35,113.4h0c0,8.48.12,17-.05,25.45-.08,4.18,1.52,7.21,5.29,8.7,17.17,6.77,40.77,1.19,44.07-23.33a76.57,76.57,0,0,0,0-18.3c-1.14-11-8.47-19.33-18.77-23.32-6.11-2.37-12.27-2.52-18.41-3.44-8.09-1.22-12.15,2.71-12.16,10.79Q332.84,424.8,332.86,436.53Zm40.21-72.21a49.82,49.82,0,0,0-2.57-16.22c-4.69-13.33-15.58-17.08-26.26-16.82-7.32.18-11.23,3-11.3,8.17-.24,16-.1,32-.11,48,0,2.24.91,3.95,3.11,4.58,12.6,3.64,30.83,1.11,36-15.18C373.33,372.31,372.7,367.95,373.07,364.31Z"/><path class="cls-3" d="M500.83,442.27c0,5.66,0,11.32,0,17,.05,7.31,2.73,10,9.93,9.94a24.88,24.88,0,0,1,2.5,0c3.56.35,4.7,2.38,2.17,4.84-6.9,6.69-14,13.46-25,11a15,15,0,0,1-9.89-7.7c-2-3.5-4-4.18-7.4-1.24a55.73,55.73,0,0,1-17.54,10.28c-14.72,5.34-25.33-4.61-28.58-17.37-4.15-16.33,6.84-33.83,22.39-38.1,6.53-1.79,12.68-4.85,19.49-6,4.09-.66,6.56-2.92,6.32-7.91-.39-8.11.7-16.35-5.33-23.2A12.69,12.69,0,0,0,459.49,389c-3.9.13-6.1,2.31-6.67,6.11a12.55,12.55,0,0,0,0,3.49c1.69,12.63-4.13,14.27-14.4,16.26-8.16,1.59-10.09-1.29-8.94-9.72,2.18-15.94,13-22.14,27-24.46,12.27-2,24.3-1.08,34.06,7.91a28.88,28.88,0,0,1,9.16,19.28C500.5,419.31,501.49,430.78,500.83,442.27Zm-50,15.66c-.39,4.88,1.12,9.61,6.87,12.13,4.28,1.88,12.17,0,16.13-3.74a4.62,4.62,0,0,0,1.3-3.06c1.49-9.53,0-19.06,0-28.59,0-2.7-1.3-3.89-4.2-3.09A27.72,27.72,0,0,0,450.8,457.94Z"/><path class="cls-3" d="M713.84,428.07c-11.79-.51-23.57-1.26-35.39-1-6.56.17-7.87,1.68-6.81,8.12,1.78,10.85,4.92,21.17,13.53,28.57a23.67,23.67,0,0,0,21.3,5.46c6.24-1.37,12.13-3.3,16.86-7.87,1.29-1.25,3.05-1.76,4.5-.38,1.72,1.65.05,3-.84,4.32-12,17.19-32.38,25.36-53.36,18.45-12.5-4.12-20.24-13.92-24.52-25.89-7.89-22.09-5-43.25,8.48-62.41,12.5-17.8,37.48-20.16,54.74-6.72,9.54,7.43,13.7,17.55,17.14,28.21,2.35,7.28-1,11.06-8.65,11.09C718.5,428.08,716.17,428.07,713.84,428.07Zm-26.76-8.91c3.48,0,7,0,10.45,0,3.32.06,5.58-1.16,5.63-4.76.11-9.31-1.25-18.2-9-24.54-4.65-3.79-9.22-3.43-13.95.34-6.64,5.29-7.5,13-8.26,20.51-.84,8.32-.54,8.35,7.69,8.43C682.1,419.19,684.59,419.17,687.08,419.17Z"/><path class="cls-4" d="M939,232.72c.21,14.91-12.46,22.58-24,16.45-9.74-5.19-14.23-13.73-14.95-24.26-.42-6.18,1.49-12.29,7.27-15.33,7.07-3.72,14.25-2.12,20.46,2.64A28,28,0,0,1,939,232.72Z"/><path class="cls-4" d="M654,229.53a30.37,30.37,0,0,1,10.17,3.25c3.61,1.75,5.85,4.31,5.83,8.46,0,4.36-2.6,7-6.22,8.84-6,3-16.38,1.06-20.89-3.76-2.7-2.88-3.9-6.19-2.32-10a5.15,5.15,0,0,1,5.72-3.11c2.19.25,2.88,2.25,2.4,4.2-.55,2.23-.61,4.26,2.08,4.53a4.81,4.81,0,0,0,5.23-3.72C656.78,235.32,655.85,232.65,654,229.53Z"/><path class="cls-4" d="M1055.6,228.5c4.56,1.79,8,2.93,11.24,4.46a8.57,8.57,0,0,1,5.28,7.86,9.24,9.24,0,0,1-5.18,8.49c-6.94,3.72-17.29,2-22.43-3.75-2.25-2.52-3.23-5.33-2.14-8.72.91-2.83,2.78-4,5.66-3.74,3.2.26,3,2.53,2.8,4.76-.12,1.66-.53,3.64,1.79,3.93a4.47,4.47,0,0,0,4.6-2.33C1059.28,235.94,1057.85,232.83,1055.6,228.5Z"/><path class="cls-2" d="M1206.18,419.13c-4.66.65-9.87-1.05-15.2-.83-1.38.06-2.51-.27-3-1.94-1.87-6.11,3.39-22.33,8.67-26.43,5.8-4.5,11.94-3.74,16.27,2.69,3.71,5.5,6.36,11.53,6.16,18.5s-1.18,8-8.21,8Zm-2.32-7.93c8.87,0,9.38,1.84,6.29-8.86a18.2,18.2,0,0,0-2.37-4.87c-2.9-4.38-6.58-4.21-9.18.39A19.58,19.58,0,0,0,1197,402C1194.31,411.14,1194.32,411.14,1203.86,411.21Z"/><path class="cls-2" d="M927,441.26a67.42,67.42,0,0,1-3,23.59c-2,6.27-5.85,11.3-12.18,13.31-8.23,2.6-16-1.32-21.93-9.77-4.82-6.92-6.09-15-7.67-22.94-2.64-13.25-3.69-26.69-.29-40,3.29-12.89,12.7-20.46,24.7-16.33,5.08,1.75,8.6,5.65,11.07,10.28C923.39,410.13,927,424.55,927,441.26Zm-7,4c-.15-16.62-2.41-30.13-8.46-42.8-2.3-4.82-6.06-7.87-11.77-7.64-5.37.22-7.64,4.15-9.56,8.29a29.32,29.32,0,0,0-1.63,5.74c-2.86,12.28-1.23,24.46,1,36.6,1.27,6.88,2.85,13.67,7,19.55,6.18,8.81,15.27,8.22,19.81-1.5A40.34,40.34,0,0,0,920,445.28Z"/><path class="cls-2" d="M332.86,436.53q0-11.73,0-23.46c0-8.08,4.08-12,12.16-10.79,6.14.92,12.29,1.08,18.41,3.44,10.29,4,17.62,12.29,18.77,23.32a76.57,76.57,0,0,1,0,18.3c-3.3,24.52-26.9,30.1-44.07,23.33-3.77-1.49-5.38-4.52-5.29-8.7.17-8.48.05-17,.05-25.45Zm19.27,28.64c11.37,0,18.4-4.81,21.78-15.24a36.78,36.78,0,0,0,1.73-15.23c-.94-8.83-3.12-17.29-12.07-21.47a44.18,44.18,0,0,0-19.39-3.85c-3.2,0-4.31,1-4.27,4.33.18,14,.08,27.92.09,41.88,0,8.57.87,9.43,9.64,9.57C350.47,465.18,351.3,465.17,352.13,465.16Z"/><path class="cls-2" d="M373.07,364.31c-.37,3.63.26,8-1.17,12.51-5.13,16.29-23.37,18.82-36,15.18-2.2-.64-3.12-2.34-3.11-4.58,0-16-.13-32,.11-48,.08-5.12,4-8,11.3-8.17,10.68-.26,21.58,3.49,26.26,16.82A49.82,49.82,0,0,1,373.07,364.31ZM340,362.22c0,6.48,0,13,0,19.44,0,2,.29,3.37,2.63,4,8.7,2.46,20-3.67,22.24-12.23a39.1,39.1,0,0,0,0-20.11c-2.76-10.47-10.7-16.3-20.31-15.07-3.12.4-4.72,1.48-4.58,5C340.17,349.58,340,355.9,340,362.22Z"/><path class="cls-2" d="M450.8,457.94a27.72,27.72,0,0,1,20.08-26.34c2.9-.8,4.21.39,4.2,3.09,0,9.53,1.51,19.06,0,28.59a4.62,4.62,0,0,1-1.3,3.06c-4,3.73-11.84,5.62-16.13,3.74C451.91,467.55,450.4,462.81,450.8,457.94Zm17.55-17c-6.61,3.22-11.3,11.26-10.58,17.34.31,2.65,1.28,5.08,4.53,4.78,3-.28,6.05-1,6.05-5.1C468.35,452.49,468.35,447.05,468.35,440.91Z"/><path class="cls-2" d="M687.08,419.17c-2.49,0-5,0-7.47,0-8.22-.08-8.52-.11-7.69-8.43.76-7.53,1.62-15.22,8.26-20.51,4.73-3.77,9.3-4.13,13.95-.34,7.77,6.34,9.14,15.23,9,24.54,0,3.6-2.31,4.82-5.63,4.76C694,419.12,690.56,419.17,687.08,419.17Zm.69-7.73c2,0,4,0,6,0,1.72,0,2.41-.82,2-2.48-.87-4-1.71-8.11-4.12-11.58-2.88-4.15-6.36-4-8.94.27a22.33,22.33,0,0,0-1.81,4C677.53,411.22,677.8,411.59,687.77,411.44Z"/><path class="cls-4" d="M1203.86,411.21c-9.53-.06-9.55-.07-6.88-9.2a19.58,19.58,0,0,1,1.61-4.14c2.6-4.6,6.29-4.77,9.18-.39a18.2,18.2,0,0,1,2.37,4.87C1213.24,413,1212.72,411.19,1203.86,411.21Z"/><path class="cls-4" d="M920,445.28a40.34,40.34,0,0,1-3.62,18.24c-4.54,9.72-13.63,10.31-19.81,1.5-4.13-5.88-5.71-12.67-7-19.55-2.24-12.14-3.86-24.32-1-36.6a29.32,29.32,0,0,1,1.63-5.74c1.92-4.14,4.19-8.07,9.56-8.29,5.71-.23,9.47,2.82,11.77,7.64C917.58,415.15,919.85,428.66,920,445.28Z"/><path class="cls-4" d="M352.13,465.17c-.83,0-1.66,0-2.49,0-8.77-.14-9.63-1-9.64-9.57,0-14,.09-27.92-.09-41.88,0-3.33,1.07-4.3,4.27-4.33a44.18,44.18,0,0,1,19.39,3.85c8.95,4.17,11.13,12.64,12.07,21.47a36.78,36.78,0,0,1-1.73,15.23C370.53,460.35,363.5,465.18,352.13,465.17Z"/><path class="cls-4" d="M340,362.22c0-6.31.18-12.63-.06-18.94-.14-3.52,1.46-4.6,4.58-5,9.61-1.23,17.55,4.59,20.31,15.07a39.1,39.1,0,0,1,0,20.11c-2.22,8.56-13.54,14.69-22.24,12.23-2.35-.66-2.64-2.07-2.63-4C340,375.18,340,368.7,340,362.22Z"/><path class="cls-4" d="M468.35,440.91c0,6.14,0,11.58,0,17,0,4.08-3,4.82-6.05,5.1-3.25.3-4.22-2.13-4.53-4.78C457,452.17,461.74,444.13,468.35,440.91Z"/><path class="cls-4" d="M687.77,411.44c-10,.15-10.24-.22-6.87-9.74a22.33,22.33,0,0,1,1.81-4c2.58-4.3,6.06-4.41,8.94-.27,2.41,3.47,3.25,7.54,4.12,11.58.36,1.66-.33,2.49-2,2.48C691.73,411.43,689.75,411.44,687.77,411.44Z"/><path class="cls-3" d="M965.7,208.78c4.38-5.08,11.11-3.17,15.43-6.64a1.35,1.35,0,0,1,2,1.35c-.44,5.58.74,11.24-.87,16.76-.22.75,0,1.85-1.12,1.88-1.5,0-1.23-1.24-1.29-2.16s0-2,0-3c-.27-4.73-2.82-7.54-6.86-7.6a7.77,7.77,0,0,0-8.1,7.59c-.15,9.65,0,19.31-.1,29,0,3.26,1.47,4.94,4.72,5.14,1.22.07,2.41.3,2.14,2-.21,1.3-1.27,1.43-2.26,1.43-5.65,0-11.3,0-16.95-.05a1.53,1.53,0,0,1-1.72-1.41c-.15-1.21.39-2,1.61-2,3.09.15,2.93-1.92,2.92-4,0-9-.09-18-.1-27,0-1.09.44-2.4,0-2.91-.06-.07,0-.1-.32-.26s-1.26.15-2.52.67-3-1.08-1.26-2.82c4-4,8.14-7.82,12.26-11.67a1.87,1.87,0,0,1,2.25-.44C967.89,203.74,964.53,206.79,965.7,208.78Z"/><path class="cls-3" d="M589.12,208.63c4.38-5.08,11.11-3.17,15.43-6.64a1.35,1.35,0,0,1,2,1.35c-.44,5.58.74,11.24-.87,16.76-.22.75,0,1.85-1.12,1.88-1.5,0-1.23-1.24-1.29-2.16s0-2,0-3c-.27-4.73-2.82-7.54-6.86-7.6a7.77,7.77,0,0,0-8.1,7.59c-.15,9.65,0,19.31-.1,29,0,3.26,1.47,4.94,4.72,5.14,1.22.07,2.41.3,2.14,2-.21,1.3-1.27,1.43-2.26,1.43-5.65,0-11.3,0-16.95-.05a1.53,1.53,0,0,1-1.72-1.41c-.15-1.21.39-2,1.61-2,3.09.15,2.93-1.92,2.92-4,0-9-.09-18-.1-27,0-1.09.44-2.4,0-2.91-.06-.07,0-.1-.32-.26s-1.26.15-2.52.67-3-1.08-1.26-2.82c4-4,8.14-7.82,12.26-11.67a1.87,1.87,0,0,1,2.25-.44C591.31,203.59,588,206.64,589.12,208.63Z"/></svg>