<?xml version="1.0" encoding="UTF-8"?>
<svg width="189px" height="56px" viewBox="0 0 189 56" version="1.1" xmlns="http://www.w3.org/2000/svg" xmlns:xlink="http://www.w3.org/1999/xlink">
    <!-- Generator: Sketch 52.6 (67491) - http://www.bohemiancoding.com/sketch -->
    <title>badge-google</title>
    <desc>Created with Sketch.</desc>
    <defs>
        <polygon id="path-1" points="0 0 188.99986 0 188.99986 55.99986 0 55.99986"></polygon>
        <polygon id="path-3" points="0 0 188.99986 0 188.99986 55.99986 0 55.99986"></polygon>
        <polygon id="path-5" points="0 56 189 56 189 0 0 0"></polygon>
        <path d="M2.0104,0.7532 C1.603,1.1844 1.3622,1.8536 1.3622,2.7202 L1.3622,33.6826 C1.3622,34.5506 1.603,35.2184 2.0104,35.6482 L2.1126,35.7504 L19.4586,18.4058 L19.4586,18.2014 L19.4586,17.997 L2.1126,0.651 L2.0104,0.7532 Z" id="path-7"></path>
        <linearGradient x1="50%" y1="0%" x2="50%" y2="100%" id="linearGradient-9">
            <stop stop-color="#00C3FF" offset="0%"></stop>
            <stop stop-color="#00E3FF" offset="100%"></stop>
        </linearGradient>
        <path d="M1.2586,6.797 L1.2586,7.0014 L1.2586,7.2058 L7.0392,12.9892 L7.1708,12.9164 L14.021,9.0244 C15.9768,7.9114 15.9768,6.0914 14.021,4.9798 L7.1708,1.0878 L7.0406,1.0136 L1.2586,6.797 Z" id="path-10"></path>
        <linearGradient x1="50%" y1="0%" x2="50%" y2="100%" id="linearGradient-12">
            <stop stop-color="#FFD200" offset="0%"></stop>
            <stop stop-color="#FFC900" offset="100%"></stop>
        </linearGradient>
        <path d="M0.6104,17.4482 C1.2544,18.1314 2.3198,18.2168 3.5196,17.535 L23.9708,5.915 L18.0586,0.0014 L0.6104,17.4482 Z" id="path-13"></path>
        <linearGradient x1="86.2450611%" y1="17.8459102%" x2="-50.1463922%" y2="194.814367%" id="linearGradient-15">
            <stop stop-color="#FF3A44" offset="0%"></stop>
            <stop stop-color="#C31162" offset="100%"></stop>
        </linearGradient>
        <path d="M0.6104,0.7532 L18.0586,18.2014 L23.9708,12.2878 L3.5196,0.6678 C2.9568,0.3472 2.4234,0.196 1.9502,0.196 C1.4126,0.196 0.952,0.3906 0.6104,0.7532" id="path-16"></path>
        <linearGradient x1="0%" y1="-22.7174596%" x2="84.6028506%" y2="97.2291036%" id="linearGradient-18">
            <stop stop-color="#0DDC75" offset="0%"></stop>
            <stop stop-color="#00F076" offset="100%"></stop>
        </linearGradient>
    </defs>
    <g id="Website" stroke="none" stroke-width="1" fill="none" fill-rule="evenodd">
        <g id="(Redesign)-HomePage-2" transform="translate(-358.000000, -505.000000)">
            <g id="Hero">
                <g id="Actionables" transform="translate(153.000000, 505.000000)">
                    <g id="badges">
                        <g id="badge-google" transform="translate(205.000000, 0.000000)">
                            <g id="Group-29" transform="translate(0.000000, 0.000280)">
                                <g id="Group-3">
                                    <mask id="mask-2" fill="white">
                                        <use xlink:href="#path-1"></use>
                                    </mask>
                                    <g id="Clip-2"></g>
                                    <path d="M181.99986,55.99986 L6.99986,55.99986 C3.14986,55.99986 -0.00014,52.84986 -0.00014,48.99986 L-0.00014,6.99986 C-0.00014,3.14986 3.14986,-0.00014 6.99986,-0.00014 L181.99986,-0.00014 C185.84986,-0.00014 188.99986,3.14986 188.99986,6.99986 L188.99986,48.99986 C188.99986,52.84986 185.84986,55.99986 181.99986,55.99986" id="Fill-1" fill="#000000" mask="url(#mask-2)"></path>
                                </g>
                                <g id="Group-6">
                                    <mask id="mask-4" fill="white">
                                        <use xlink:href="#path-3"></use>
                                    </mask>
                                    <g id="Clip-5"></g>
                                    <path d="M181.99986,-0.00014 L6.99986,-0.00014 C3.14986,-0.00014 -0.00014,3.14986 -0.00014,6.99986 L-0.00014,48.99986 C-0.00014,52.84986 3.14986,55.99986 6.99986,55.99986 L181.99986,55.99986 C185.84986,55.99986 188.99986,52.84986 188.99986,48.99986 L188.99986,6.99986 C188.99986,3.14986 185.84986,-0.00014 181.99986,-0.00014 M181.99986,1.11986 C185.24226,1.11986 187.87986,3.75746 187.87986,6.99986 L187.87986,48.99986 C187.87986,52.24226 185.24226,54.87986 181.99986,54.87986 L6.99986,54.87986 C3.75746,54.87986 1.11986,52.24226 1.11986,48.99986 L1.11986,6.99986 C1.11986,3.75746 3.75746,1.11986 6.99986,1.11986 L181.99986,1.11986" id="Fill-4" fill="#A6A6A6" mask="url(#mask-4)"></path>
                                </g>
                                <path d="M66.38576,14.34034 C66.38576,15.51354 66.03856,16.44734 65.34276,17.14454 C64.55176,17.97334 63.52276,18.38774 62.25716,18.38774 C61.04476,18.38774 60.01296,17.96774 59.16596,17.12634 C58.31616,16.28634 57.89336,15.24334 57.89336,14.00014 C57.89336,12.75554 58.31616,11.71394 59.16596,10.87254 C60.01296,10.03254 61.04476,9.61254 62.25716,9.61254 C62.85776,9.61254 63.43456,9.73014 63.98056,9.96394 C64.52796,10.19914 64.96616,10.51134 65.29516,10.90194 L64.55596,11.64114 C64.00016,10.97754 63.23436,10.64434 62.25716,10.64434 C61.37236,10.64434 60.60796,10.95514 59.96256,11.57674 C59.31716,12.19974 58.99516,13.00614 58.99516,14.00014 C58.99516,14.99274 59.31716,15.80054 59.96256,16.42214 C60.60796,17.04514 61.37236,17.35454 62.25716,17.35454 C63.19516,17.35454 63.97636,17.04234 64.60356,16.41654 C65.00956,16.00914 65.24476,15.44354 65.30636,14.71554 L62.25716,14.71554 L62.25716,13.70614 L66.32696,13.70614 C66.36616,13.92594 66.38576,14.13594 66.38576,14.34034" id="Fill-7" fill="#FFFFFF"></path>
                                <path d="M66.38576,14.34034 C66.38576,15.51354 66.03856,16.44734 65.34276,17.14454 C64.55176,17.97334 63.52276,18.38774 62.25716,18.38774 C61.04476,18.38774 60.01296,17.96774 59.16596,17.12634 C58.31616,16.28634 57.89336,15.24334 57.89336,14.00014 C57.89336,12.75554 58.31616,11.71394 59.16596,10.87254 C60.01296,10.03254 61.04476,9.61254 62.25716,9.61254 C62.85776,9.61254 63.43456,9.73014 63.98056,9.96394 C64.52796,10.19914 64.96616,10.51134 65.29516,10.90194 L64.55596,11.64114 C64.00016,10.97754 63.23436,10.64434 62.25716,10.64434 C61.37236,10.64434 60.60796,10.95514 59.96256,11.57674 C59.31716,12.19974 58.99516,13.00614 58.99516,14.00014 C58.99516,14.99274 59.31716,15.80054 59.96256,16.42214 C60.60796,17.04514 61.37236,17.35454 62.25716,17.35454 C63.19516,17.35454 63.97636,17.04234 64.60356,16.41654 C65.00956,16.00914 65.24476,15.44354 65.30636,14.71554 L62.25716,14.71554 L62.25716,13.70614 L66.32696,13.70614 C66.36616,13.92594 66.38576,14.13594 66.38576,14.34034 Z" id="Stroke-9" stroke="#FFFFFF" stroke-width="0.5"></path>
                                <polygon id="Fill-11" fill="#FFFFFF" points="72.83878 10.83208 69.01398 10.83208 69.01398 13.49488 72.46218 13.49488 72.46218 14.50428 69.01398 14.50428 69.01398 17.16708 72.83878 17.16708 72.83878 18.20028 67.93458 18.20028 67.93458 9.80028 72.83878 9.80028"></polygon>
                                <polygon id="Stroke-13" stroke="#FFFFFF" stroke-width="0.5" points="72.83878 10.83208 69.01398 10.83208 69.01398 13.49488 72.46218 13.49488 72.46218 14.50428 69.01398 14.50428 69.01398 17.16708 72.83878 17.16708 72.83878 18.20028 67.93458 18.20028 67.93458 9.80028 72.83878 9.80028"></polygon>
                                <polygon id="Fill-15" fill="#FFFFFF" points="77.39018 18.19986 76.31078 18.19986 76.31078 10.83166 73.96438 10.83166 73.96438 9.79986 79.73658 9.79986 79.73658 10.83166 77.39018 10.83166"></polygon>
                                <polygon id="Stroke-17" stroke="#FFFFFF" stroke-width="0.5" points="77.39018 18.19986 76.31078 18.19986 76.31078 10.83166 73.96438 10.83166 73.96438 9.79986 79.73658 9.79986 79.73658 10.83166 77.39018 10.83166"></polygon>
                                <mask id="mask-6" fill="white">
                                    <use xlink:href="#path-5"></use>
                                </mask>
                                <g id="Clip-20"></g>
                                <polygon id="Fill-19" fill="#FFFFFF" mask="url(#mask-6)" points="83.9132 18.2 84.9926 18.2 84.9926 9.8 83.9132 9.8"></polygon>
                                <polygon id="Stroke-21" stroke="#FFFFFF" stroke-width="0.5" mask="url(#mask-6)" points="83.9132 18.2 84.9926 18.2 84.9926 9.8 83.9132 9.8"></polygon>
                                <polygon id="Fill-22" fill="#FFFFFF" mask="url(#mask-6)" points="89.77962 18.19986 88.70022 18.19986 88.70022 10.83166 86.35382 10.83166 86.35382 9.79986 92.12602 9.79986 92.12602 10.83166 89.77962 10.83166"></polygon>
                                <polygon id="Stroke-23" stroke="#FFFFFF" stroke-width="0.5" mask="url(#mask-6)" points="89.77962 18.19986 88.70022 18.19986 88.70022 10.83166 86.35382 10.83166 86.35382 9.79986 92.12602 9.79986 92.12602 10.83166 89.77962 10.83166"></polygon>
                                <path d="M97.69088,16.41094 C98.31248,17.04094 99.07268,17.35454 99.97288,17.35454 C100.87168,17.35454 101.63328,17.04094 102.25488,16.41094 C102.87648,15.78094 103.18868,14.97734 103.18868,14.00014 C103.18868,13.02294 102.87648,12.21794 102.25488,11.58934 C101.63328,10.95934 100.87168,10.64434 99.97288,10.64434 C99.07268,10.64434 98.31248,10.95934 97.69088,11.58934 C97.07068,12.21794 96.75848,13.02294 96.75848,14.00014 C96.75848,14.97734 97.07068,15.78094 97.69088,16.41094 M103.05288,17.11374 C102.22688,17.96354 101.20068,18.38774 99.97288,18.38774 C98.74508,18.38774 97.71888,17.96354 96.89428,17.11374 C96.06828,16.26534 95.65668,15.22794 95.65668,14.00014 C95.65668,12.77234 96.06828,11.73354 96.89428,10.88514 C97.71888,10.03674 98.74508,9.61254 99.97288,9.61254 C101.19368,9.61254 102.21708,10.03814 103.04728,10.89074 C103.87608,11.74334 104.29048,12.77934 104.29048,14.00014 C104.29048,15.22794 103.87748,16.26534 103.05288,17.11374" id="Fill-24" fill="#FFFFFF" mask="url(#mask-6)"></path>
                                <path d="M97.69088,16.41094 C98.31248,17.04094 99.07268,17.35454 99.97288,17.35454 C100.87168,17.35454 101.63328,17.04094 102.25488,16.41094 C102.87648,15.78094 103.18868,14.97734 103.18868,14.00014 C103.18868,13.02294 102.87648,12.21794 102.25488,11.58934 C101.63328,10.95934 100.87168,10.64434 99.97288,10.64434 C99.07268,10.64434 98.31248,10.95934 97.69088,11.58934 C97.07068,12.21794 96.75848,13.02294 96.75848,14.00014 C96.75848,14.97734 97.07068,15.78094 97.69088,16.41094 Z M103.05288,17.11374 C102.22688,17.96354 101.20068,18.38774 99.97288,18.38774 C98.74508,18.38774 97.71888,17.96354 96.89428,17.11374 C96.06828,16.26534 95.65668,15.22794 95.65668,14.00014 C95.65668,12.77234 96.06828,11.73354 96.89428,10.88514 C97.71888,10.03674 98.74508,9.61254 99.97288,9.61254 C101.19368,9.61254 102.21708,10.03814 103.04728,10.89074 C103.87608,11.74334 104.29048,12.77934 104.29048,14.00014 C104.29048,15.22794 103.87748,16.26534 103.05288,17.11374 Z" id="Stroke-25" stroke="#FFFFFF" stroke-width="0.5" mask="url(#mask-6)"></path>
                                <polygon id="Fill-26" fill="#FFFFFF" mask="url(#mask-6)" points="105.80514 18.19986 105.80514 9.79986 107.11834 9.79986 111.20074 16.33366 111.24834 16.33366 111.20074 14.71526 111.20074 9.79986 112.28154 9.79986 112.28154 18.19986 111.15454 18.19986 106.88454 11.34826 106.83694 11.34826 106.88454 12.96806 106.88454 18.19986"></polygon>
                                <polygon id="Stroke-27" stroke="#FFFFFF" stroke-width="0.5" mask="url(#mask-6)" points="105.80514 18.19986 105.80514 9.79986 107.11834 9.79986 111.20074 16.33366 111.24834 16.33366 111.20074 14.71526 111.20074 9.79986 112.28154 9.79986 112.28154 18.19986 111.15454 18.19986 106.88454 11.34826 106.83694 11.34826 106.88454 12.96806 106.88454 18.19986"></polygon>
                                <path d="M149.7104,42 L152.3214,42 L152.3214,24.4986 L149.7104,24.4986 L149.7104,42 Z M173.2402,30.8028 L170.2456,38.3908 L170.156,38.3908 L167.048,30.8028 L164.234,30.8028 L168.896,41.4078 L166.2374,47.3074 L168.9618,47.3074 L176.1452,30.8028 L173.2402,30.8028 Z M158.424,40.012 C157.57,40.012 156.3758,39.5836 156.3758,38.5252 C156.3758,37.1756 157.8626,36.6562 159.1464,36.6562 C160.293,36.6562 160.8348,36.9054 161.532,37.2414 C161.329,38.864 159.9332,40.012 158.424,40.012 Z M158.7404,30.4192 C156.849,30.4192 154.8904,31.2536 154.0798,33.0988 L156.3982,34.0676 C156.8938,33.0988 157.8164,32.7838 158.7852,32.7838 C160.1362,32.7838 161.5096,33.5944 161.532,35.035 L161.532,35.2156 C161.0588,34.9454 160.0452,34.5408 158.8076,34.5408 C156.3072,34.5408 153.7634,35.9142 153.7634,38.4804 C153.7634,40.8226 155.813,42.3318 158.109,42.3318 C159.8646,42.3318 160.8348,41.5436 161.441,40.6196 L161.532,40.6196 L161.532,41.9706 L164.0548,41.9706 L164.0548,35.2604 C164.0548,32.1538 161.7336,30.4192 158.7404,30.4192 Z M142.5956,32.9336 L138.88,32.9336 L138.88,26.9346 L142.5956,26.9346 C144.5486,26.9346 145.6574,28.5502 145.6574,29.9334 C145.6574,31.29 144.5486,32.9336 142.5956,32.9336 Z M142.5284,24.4972 L136.269,24.4972 L136.269,42 L138.88,42 L138.88,35.3696 L142.5284,35.3696 C145.4236,35.3696 148.2698,33.2724 148.2698,29.9334 C148.2698,26.5944 145.4236,24.4972 142.5284,24.4972 Z M108.395,40.0148 C106.5904,40.0148 105.0798,38.5042 105.0798,36.4294 C105.0798,34.3308 106.5904,32.7978 108.395,32.7978 C110.1758,32.7978 111.5744,34.3308 111.5744,36.4294 C111.5744,38.5042 110.1758,40.0148 108.395,40.0148 Z M111.3938,31.7828 L111.3042,31.7828 C110.7176,31.0842 109.5892,30.4514 108.1696,30.4514 C105.1918,30.4514 102.4618,33.068 102.4618,36.4294 C102.4618,39.767 105.1918,42.3612 108.1696,42.3612 C109.5892,42.3612 110.7176,41.7298 111.3042,41.0074 L111.3938,41.0074 L111.3938,41.8642 C111.3938,44.1434 110.1758,45.36 108.2144,45.36 C106.6128,45.36 105.6202,44.2106 105.2142,43.2404 L102.9364,44.1882 C103.5902,45.766 105.3262,47.7064 108.2144,47.7064 C111.2818,47.7064 113.876,45.9018 113.876,41.503 L113.876,30.8126 L111.3938,30.8126 L111.3938,31.7828 Z M115.6806,42 L118.2958,42 L118.2958,24.4986 L115.6806,24.4986 L115.6806,42 Z M122.1528,36.2264 C122.0856,33.9248 123.935,32.753 125.265,32.753 C126.3038,32.753 127.183,33.2724 127.477,34.0158 L122.1528,36.2264 Z M130.2728,34.2412 C129.7758,32.9112 128.2652,30.4514 125.1754,30.4514 C122.108,30.4514 119.5586,32.865 119.5586,36.407 C119.5586,39.7446 122.0856,42.3612 125.468,42.3612 C128.1966,42.3612 129.7758,40.6924 130.431,39.7222 L128.401,38.3684 C127.7234,39.361 126.7994,40.0148 125.468,40.0148 C124.138,40.0148 123.1902,39.4058 122.5826,38.2102 L130.543,34.9174 L130.2728,34.2412 Z M66.8416,32.2798 L66.8416,34.8054 L72.8854,34.8054 C72.7062,36.2264 72.2316,37.2638 71.5106,37.9848 C70.63,38.8654 69.2538,39.8356 66.8416,39.8356 C63.119,39.8356 60.2098,36.8354 60.2098,33.1142 C60.2098,29.393 63.119,26.3914 66.8416,26.3914 C68.8492,26.3914 70.315,27.181 71.3972,28.1974 L73.1794,26.4152 C71.6674,24.9718 69.6612,23.8658 66.8416,23.8658 C61.7428,23.8658 57.4574,28.0168 57.4574,33.1142 C57.4574,38.2102 61.7428,42.3612 66.8416,42.3612 C69.5926,42.3612 71.6674,41.4582 73.2914,39.767 C74.9602,38.0982 75.4796,35.7518 75.4796,33.8576 C75.4796,33.2724 75.4348,32.7306 75.3438,32.2798 L66.8416,32.2798 Z M82.3508,40.0148 C80.5476,40.0148 78.9908,38.5266 78.9908,36.407 C78.9908,34.2636 80.5476,32.7978 82.3508,32.7978 C84.1554,32.7978 85.7122,34.2636 85.7122,36.407 C85.7122,38.5266 84.1554,40.0148 82.3508,40.0148 Z M82.3508,30.4514 C79.058,30.4514 76.3742,32.956 76.3742,36.407 C76.3742,39.8356 79.058,42.3612 82.3508,42.3612 C85.645,42.3612 88.3288,39.8356 88.3288,36.407 C88.3288,32.956 85.645,30.4514 82.3508,30.4514 Z M95.3904,40.0148 C93.5858,40.0148 92.029,38.5266 92.029,36.407 C92.029,34.2636 93.5858,32.7978 95.3904,32.7978 C97.195,32.7978 98.7504,34.2636 98.7504,36.407 C98.7504,38.5266 97.195,40.0148 95.3904,40.0148 Z M95.3904,30.4514 C92.0976,30.4514 89.4138,32.956 89.4138,36.407 C89.4138,39.8356 92.0976,42.3612 95.3904,42.3612 C98.6832,42.3612 101.367,39.8356 101.367,36.407 C101.367,32.956 98.6832,30.4514 95.3904,30.4514 Z" id="Fill-28" fill="#FFFFFF" mask="url(#mask-6)"></path>
                            </g>
                            <g id="Group-32" transform="translate(12.600000, 9.800280)">
                                <mask id="mask-8" fill="white">
                                    <use xlink:href="#path-7"></use>
                                </mask>
                                <g id="Clip-31"></g>
                                <path d="M2.0104,0.7532 C1.603,1.1844 1.3622,1.8536 1.3622,2.7202 L1.3622,33.6826 C1.3622,34.5506 1.603,35.2184 2.0104,35.6482 L2.1126,35.7504 L19.4586,18.4058 L19.4586,18.2014 L19.4586,17.997 L2.1126,0.651 L2.0104,0.7532 Z" id="Fill-30" fill="url(#linearGradient-9)" mask="url(#mask-8)"></path>
                            </g>
                            <g id="Group-35" transform="translate(30.800000, 21.000280)">
                                <mask id="mask-11" fill="white">
                                    <use xlink:href="#path-10"></use>
                                </mask>
                                <g id="Clip-34"></g>
                                <path d="M1.2586,6.797 L1.2586,7.0014 L1.2586,7.2058 L7.0392,12.9892 L7.1708,12.9164 L14.021,9.0244 C15.9768,7.9114 15.9768,6.0914 14.021,4.9798 L7.1708,1.0878 L7.0406,1.0136 L1.2586,6.797 Z" id="Fill-33" fill="url(#linearGradient-12)" mask="url(#mask-11)"></path>
                            </g>
                            <g id="Group-38" transform="translate(14.000000, 28.000280)">
                                <mask id="mask-14" fill="white">
                                    <use xlink:href="#path-13"></use>
                                </mask>
                                <g id="Clip-37"></g>
                                <path d="M0.6104,17.4482 C1.2544,18.1314 2.3198,18.2168 3.5196,17.535 L23.9708,5.915 L18.0586,0.0014 L0.6104,17.4482 Z" id="Fill-36" fill="url(#linearGradient-15)" mask="url(#mask-14)"></path>
                            </g>
                            <g id="Group-41" transform="translate(14.000000, 9.800280)">
                                <mask id="mask-17" fill="white">
                                    <use xlink:href="#path-16"></use>
                                </mask>
                                <g id="Clip-40"></g>
                                <path d="M0.6104,0.7532 L18.0586,18.2014 L23.9708,12.2878 L3.5196,0.6678 C2.9568,0.3472 2.4234,0.196 1.9502,0.196 C1.4126,0.196 0.952,0.3906 0.6104,0.7532" id="Fill-39" fill="url(#linearGradient-18)" mask="url(#mask-17)"></path>
                            </g>
                            <g id="Group-50" transform="translate(13.600000, 27.800280)" fill="#000000">
                                <path d="M24.24018,5.98438 L3.91918,17.53158 C2.78238,18.17558 1.76598,18.13358 1.11358,17.54558 L1.00998,17.65058 L1.11218,17.75138 L1.11358,17.74998 C1.76598,18.33798 2.78238,18.38138 3.91918,17.73598 L24.37038,6.11458 L24.24018,5.98438 Z" id="Fill-42"></path>
                                <path d="M1.00956,17.44562 C0.60216,17.01442 0.36136,16.34522 0.36136,15.47862 L0.36136,15.68302 C0.36136,16.54962 0.60216,17.21882 1.00956,17.65002 L1.11316,17.54642 L1.00956,17.44562 Z" id="Fill-44"></path>
                                <path d="M31.22044,2.01818 L24.24004,5.98438 L24.37024,6.11458 L31.22044,2.22258 C32.19904,1.66678 32.68764,0.93458 32.68764,0.20238 C32.60504,0.86458 32.10804,1.51418 31.22044,2.01818" id="Fill-46"></path>
                            </g>
                        </g>
                    </g>
                </g>
            </g>
        </g>
    </g>
</svg>