<svg id="Layer_1" data-name="Layer 1" xmlns="http://www.w3.org/2000/svg" viewBox="0 0 57.6 49.2"><defs><style>.cls-1{fill:#231f20;}.cls-2{fill:#fff;}</style></defs><title>Untitled-1</title><g id="Hat_Logo" data-name="Hat Logo"><path class="cls-1" d="M104.54,130.32a4.37,4.37,0,0,0,.75-.54,5.8,5.8,0,0,0,1-1.29s.4-.61,1.08-1.51a17,17,0,0,1,1.72-1.88,33.92,33.92,0,0,1,2.64-2.47,39.68,39.68,0,0,1,3.6-2.47,14.83,14.83,0,0,1,2.1-1.18,16.16,16.16,0,0,1,1.72-.65,15.38,15.38,0,0,1,2.42-.65c.19,0,.41-.06,2.26-.16,1.57-.08,2.36-.12,2.8-.11a15.8,15.8,0,0,1,2.64.32,23.13,23.13,0,0,1,3,.81c.79.3,1.11.49,1.34.32.45-.31.08-1.52-.16-2.47a53.66,53.66,0,0,1-.81-5.49c-.1-1.06-.22-2.8-.22-2.8a2,2,0,0,0,.91-.48,3.08,3.08,0,0,0,.65-1.13c.34-.76.53-.91.81-1.45a10.11,10.11,0,0,0,.7-3.07,20.64,20.64,0,0,1,.54-3.17c.37-1.13.75-2,.75-2a8,8,0,0,0,.38-.86,4.8,4.8,0,0,0,.05-2.15,11.87,11.87,0,0,0-.65-3.17,11.14,11.14,0,0,0-.75-1.56c-1.93-3.21-6.92-4.29-9.46-4.84-.78-.17-2.59-.52-2.8-.05s.63,1,.54,1.08-1.48-1.21-3.5-1.77a4.8,4.8,0,0,0-2.85-.11,4.55,4.55,0,0,0-2.53,2.2l-1.77.16-1.72.59-3,.43-2.8.48-2.8.38-2.74,2.64-2.85,2.1L95,93.75l-2.53,1.4L91,97.09l.22.65,2.2.54L95,99,93.2,99l-2.1-.65-1.83-.05-1.72.22a4,4,0,0,0-1.4.59,4.64,4.64,0,0,0-1.4,1.61,5.41,5.41,0,0,0-.75,1.77c-.26,1.28.27,1.51,0,2.42-.21.71-.55.61-1.94,2.26A13.16,13.16,0,0,0,80.72,109a8.16,8.16,0,0,0-.86,1.77c-.3,1-.14,1.79.91,5.54.37,1.3.55,1.94.65,2.26,1.08,3.49,1.65,5.28,3,7.1a14.14,14.14,0,0,0,1.72,1.88c.46.42,1.25,1.09,4.84,3.07a13.14,13.14,0,0,0,3.33,1.56,6.3,6.3,0,0,0,3.28.05,7.73,7.73,0,0,0,2.37-1.29c.73-.5,1-.76,2.42-1.88l1.34-1Z" transform="translate(-79.73 -83.2)"/><path class="cls-2" d="M100.4,119.94l-.16-3.07,2.53-.81L105.3,115l1.45-.86,1-1.24,1.51-2.1.75-1.29.48-1.4.91-1.4,1.24-1.34-.11-.54h-1.08l-.86.54-.54.59-.7.16-.7-.43-.43-1,.05-1.77.38-1.56.27-.81c0-.43,0-.92.05-1.45a5.2,5.2,0,0,1,.7-2.74,1.45,1.45,0,0,1,.91-.7,1.28,1.28,0,0,1,1,.32c.25.22.3.44.54,1.24,0,0,.25.83.48,1.51.37,1.09.53,1.27.7,1.4a1.87,1.87,0,0,0,1,.32c.5.07,1.41.07,1.51-.22s-.22-.61-1.94-1.56l-.22-3.33.22-2.85.54-.75.86-.11.86.32.27,1,.11,2,.05,1h.59l.16-1.34.22-1.29.59-.11.81,1.24.48,1.77.27,1.13.43-.16.11-2.31-1.77-2.37-.32-1.29.43-.91,1.24-.65,1.45-.05.7.7.65,1.56.05,2,.27,3,.75-1,.05-2.26-.22-1.51L123,90.8l-.7-1.18-2.37-2,1.24-.48,2,.11,1,.32.54.65.75,1,.38,1.08.27,1.29.22,1.88.32.7.54-2.69.59-1.88.59-.81,1.24.16,1,.27.32.65.16.86-1,1.18-.48,1.24-.27,2-.22,2.47.54-.27.54-1,.54-1.61.38-1.67.48.27.32,1.56.27,1.67.59.11L132.78,95l.22-1.24.81-.32.7.54.43.81.22.7.48-.11V94.34l-.38-1-.75-.27-1.94-.38L132,90.85a2.87,2.87,0,0,0-.48-1.83,3.77,3.77,0,0,0-2.69-1.24,6.79,6.79,0,0,0-2.42.05L125,87l-1.45-.86-.91-.32-1.24-.54-1-.38-1.24.22-1.08.43-.7.81L117,87.94l-.75-.16-.54-.86-1.61,1-1.83.11-2.37.43-3.5.65-1.08.11-3,2.47L99,94.24l-2.47,1.4L94.06,97l-.16.75,2.58.32,1.34.43.81.81-.59.75-1.51.32-2.8-.38-1.88-.38-1.56.05-1.34.38-1.56,1.18-.48.7-.27,3.33-.32,1.18-2.15,2-1.24,1.77-.48,1.34.48,3,2.53,7.48,1.29,2.64,1,1.29,1.72,1.4L92,129.35l2.26,1,2.58.65,1.88.11.76-.3,1.69-1.1,1.74-1.45.59-.47,1.29-.79L103,120.21l-1,2-.86,1.53-.75,1-.91.48H99l-.51-.38-.3-.75.27-.83.94-.75.46-.89.43-1.1Z" transform="translate(-79.73 -83.2)"/><polygon class="cls-1" points="19.36 14.33 21.21 13.65 23.96 12.36 25.21 12.2 26.7 11.87 28.48 11.31 30.01 10.42 31.14 9.61 32.06 8.56 32.75 7.48 32.87 6.79 32.79 6.19 32.15 6.19 31.42 6.51 30.05 7.6 28.8 8 26.82 8.73 24.68 9.45 23.55 9.9 22.14 10.74 20.93 11.79 19.64 12.84 19.24 13.57 19.36 14.33"/><polygon class="cls-2" points="26.38 45.03 27.83 43.09 29.69 40.95 31.78 39.06 34.08 37.36 37.47 35.27 40.74 33.65 43.44 33.05 45.3 32.89 47.35 32.97 49.25 33.09 50.66 33.53 52.31 33.94 53.44 34.3 52.8 28.61 52.07 25.1 51.3 22.4 50.46 20.63 49.57 19.86 48.24 19.38 45.9 18.85 43.72 18.57 41.62 18.45 39.93 18.49 38.36 18.93 36.7 19.9 34.77 22.04 32.83 24.58 31.46 26.92 30.01 29.09 28.76 30.87 27.35 31.96 26.14 33.25 25.05 34.62 24.48 36.19 24.44 37.65 25.37 41.24 26.38 45.03"/></g></svg>