<svg id="Layer_1" data-name="Layer 1" xmlns="http://www.w3.org/2000/svg" viewBox="0 0 201.35 67.62"><defs><style>.cls-1{fill:#231f20;}.cls-2{fill:#fff;}.cls-3{fill:#8d0e1b;}</style></defs><title>logo</title><g id="Full_Logo" data-name="Full Logo"><g id="Hat_Logo" data-name="Hat Logo"><path class="cls-1" d="M1763.73,963a3.86,3.86,0,0,0,.67-.48,5.13,5.13,0,0,0,.9-1.14s.36-.54,1-1.33a15,15,0,0,1,1.52-1.66,30,30,0,0,1,2.33-2.19,35.06,35.06,0,0,1,3.18-2.19,13.11,13.11,0,0,1,1.85-1,14.28,14.28,0,0,1,1.52-.57,13.59,13.59,0,0,1,2.14-.57c.17,0,.36-.06,2-.14,1.38-.07,2.08-.11,2.47-.1a14,14,0,0,1,2.33.29,20.44,20.44,0,0,1,2.66.71c.7.26,1,.43,1.19.29.4-.27.07-1.35-.14-2.19a47.41,47.41,0,0,1-.71-4.85c-.09-.94-.19-2.47-.19-2.47a1.81,1.81,0,0,0,.81-.43,2.72,2.72,0,0,0,.57-1c.3-.68.47-.81.71-1.28a8.93,8.93,0,0,0,.62-2.71,18.23,18.23,0,0,1,.48-2.8c.32-1,.67-1.76.67-1.76a7.05,7.05,0,0,0,.33-.76,4.24,4.24,0,0,0,0-1.9,10.49,10.49,0,0,0-.57-2.8,9.84,9.84,0,0,0-.67-1.38c-1.71-2.84-6.11-3.79-8.36-4.28-.69-.15-2.29-.46-2.47,0s.56.85.48,1-1.31-1.07-3.09-1.57a4.24,4.24,0,0,0-2.52-.1,4,4,0,0,0-2.23,1.95l-1.57.14-1.52.52-2.66.38-2.47.43-2.47.33-2.42,2.33-2.52,1.85-2.23,1.24-2.23,1.24-1.33,1.71.19.57,1.95.48,1.43.67-1.62,0-1.85-.57-1.62,0-1.52.19a3.52,3.52,0,0,0-1.24.52,4.1,4.1,0,0,0-1.24,1.43,4.78,4.78,0,0,0-.67,1.57c-.23,1.13.24,1.33,0,2.14-.19.63-.48.54-1.71,2a11.63,11.63,0,0,0-1.19,1.62,7.21,7.21,0,0,0-.76,1.57c-.26.88-.13,1.59.81,4.89.32,1.14.48,1.72.57,2,1,3.09,1.45,4.66,2.66,6.27a12.5,12.5,0,0,0,1.52,1.66,21.15,21.15,0,0,0,4.28,2.71,11.61,11.61,0,0,0,2.95,1.38,5.57,5.57,0,0,0,2.9,0,6.83,6.83,0,0,0,2.09-1.14c.65-.44.86-.67,2.14-1.66l1.19-.9Z" transform="translate(-1741.8 -921.33)"/><path class="cls-2" d="M1760.07,953.8l-.14-2.71,2.23-.71,2.23-1,1.28-.76.9-1.09,1.33-1.85.67-1.14.43-1.24.81-1.24,1.09-1.19-.1-.48h-1l-.76.48-.48.52-.62.14-.62-.38-.38-.86,0-1.57.33-1.38.24-.71c0-.38,0-.81,0-1.28a4.6,4.6,0,0,1,.62-2.42,1.28,1.28,0,0,1,.81-.62,1.13,1.13,0,0,1,.86.29c.22.19.26.39.48,1.09,0,0,.22.73.43,1.33.33,1,.47,1.12.62,1.24a1.66,1.66,0,0,0,.86.29c.44.06,1.25.06,1.33-.19s-.2-.54-1.71-1.38l-.19-2.95.19-2.52.48-.67.76-.1.76.29.24.86.1,1.76,0,.86h.52l.14-1.19.19-1.14.52-.1.71,1.09.43,1.57.24,1,.38-.14.1-2-1.57-2.09-.29-1.14.38-.81,1.09-.57,1.28,0,.62.62.57,1.38,0,1.81.24,2.66.67-.86,0-2-.19-1.33L1780,928l-.62-1-2.09-1.76,1.09-.43,1.76.1.9.29.48.57.67.86.33,1,.24,1.14.19,1.66.29.62.48-2.38.52-1.66.52-.71,1.09.14.9.24.29.57.14.76-.86,1-.43,1.09-.24,1.76-.19,2.19.48-.24.48-.86.48-1.43.33-1.47.43.24.29,1.38.24,1.47.52.1,0-1.43.19-1.09.71-.29.62.48.38.71.19.62.43-.1v-1l-.33-.86-.67-.24-1.71-.33-.52-1.66a2.54,2.54,0,0,0-.43-1.62,3.33,3.33,0,0,0-2.38-1.09,6,6,0,0,0-2.14,0l-1.24-.76-1.28-.76-.81-.29-1.09-.48-.9-.33-1.09.19-1,.38-.62.71-.33,1.43-.67-.14-.48-.76-1.43.86-1.62.1-2.09.38-3.09.57-1,.1-2.66,2.19-2.95,2.28-2.19,1.24-2.14,1.24-.14.67,2.28.29,1.19.38.71.71-.52.67-1.33.29-2.47-.33-1.66-.33-1.38,0-1.19.33-1.38,1-.43.62-.24,2.95-.29,1-1.9,1.81-1.09,1.57-.43,1.19.43,2.61,2.23,6.61L1748,958l.9,1.14,1.52,1.24,2.19,1.71,2,.86,2.28.57,1.66.1.67-.26,1.5-1,1.54-1.28.53-.42,1.14-.7-1.57-6-.86,1.73-.76,1.35-.67.9-.81.43h-.48l-.45-.33-.26-.67.24-.74.83-.67.4-.78.38-1Z" transform="translate(-1741.8 -921.33)"/><polygon class="cls-1" points="17.11 12.66 18.75 12.06 21.17 10.92 22.27 10.78 23.59 10.49 25.16 9.99 26.52 9.21 27.51 8.49 28.33 7.57 28.94 6.61 29.05 6 28.98 5.47 28.4 5.47 27.76 5.75 26.55 6.71 25.45 7.07 23.7 7.71 21.81 8.35 20.81 8.74 19.57 9.49 18.5 10.42 17.36 11.35 17 11.99 17.11 12.66"/><polygon class="cls-2" points="23.31 39.79 24.59 38.08 26.23 36.19 28.08 34.51 30.11 33.02 33.11 31.16 36 29.74 38.38 29.2 40.02 29.06 41.84 29.13 43.52 29.24 44.76 29.63 46.22 29.99 47.22 30.31 46.65 25.28 46.01 22.18 45.33 19.79 44.59 18.23 43.8 17.55 42.63 17.12 40.56 16.66 38.63 16.41 36.78 16.3 35.28 16.34 33.89 16.73 32.43 17.58 30.72 19.47 29.01 21.72 27.8 23.78 26.52 25.71 25.41 27.28 24.16 28.24 23.09 29.38 22.13 30.59 21.63 31.98 21.6 33.26 22.42 36.44 23.31 39.79"/></g><g id="Chris_Lori_s" data-name="Chris &amp; Lori&apos;s"><polygon id="C" class="cls-3" points="71.23 17.42 72.02 17.44 72.04 11.9 71.18 11.95 71.18 13.26 70.28 12.74 69.45 12.57 68.07 12.36 66.22 12.43 64.56 12.93 62.99 13.95 61.82 15.14 61.23 16.11 60.9 16.87 60.61 17.61 60.49 18.18 60.54 20.84 60.99 22.03 61.54 22.88 62.53 24.07 63.63 24.88 65.03 25.64 67 26.07 69.33 26.04 70.57 25.57 71.3 25.16 73.01 23.97 72.18 23.21 71.56 24 70.78 24.57 69.92 24.97 68.69 25.16 66.88 25.09 65.48 24.43 64.03 23.17 63.03 21.48 62.53 20.36 62.3 18.46 62.44 16.7 63.44 15.06 64.56 14.07 65.89 13.52 67.26 13.33 68.71 13.5 69.85 13.85 70.59 14.64 71.04 15.54 71.14 15.99 71.23 17.42"/><path class="cls-3" d="M1816.54,935.16" transform="translate(-1741.8 -921.33)"/><polyline id="H" class="cls-3" points="74.22 14.26 73.8 13.78 76.53 11.21 76.91 11.67 76.46 12.24 76.46 17.37 77.34 16.92 78.38 16.75 79.19 16.8 79.86 17.08 80.31 17.58 80.43 17.8 80.57 18.34 80.69 18.89 80.71 22.14 80.73 24.14 80.78 25 81.76 25.02 81.76 25.73 78.17 25.78 78.12 24.95 78.98 24.97 78.95 21.15 78.88 18.39 78.69 17.87 78.14 17.75 77.6 17.75 77.05 17.92 76.58 18.32 76.6 24.97 77.65 25 77.62 25.76 74.11 25.8 74.03 24.95 74.87 24.95 74.75 13.83"/><polygon id="R" class="cls-3" points="83.73 25.07 82.83 25.07 82.85 25.76 86.58 25.8 86.53 24.95 85.42 24.97 85.37 18.49 86.2 17.94 86.65 17.87 87.22 17.87 87.7 18.08 87.86 18.63 87.93 18.82 87.96 20.32 88.6 20.32 88.5 16.47 88.03 16.47 88 16.82 87.34 16.82 86.53 16.92 86.01 17.16 85.61 17.63 85.37 17.61 85.42 17.23 85.82 16.82 85.3 16.47 82.8 18.98 83.14 19.34 83.68 18.82 83.73 25.07"/><g id="I"><polygon id="I-2" data-name="I" class="cls-3" points="90.07 25.09 89.34 25.07 89.31 25.73 92.88 25.78 92.81 25 91.83 25.02 91.83 17.16 92.19 16.82 91.66 16.47 89.27 19.01 89.53 19.41 90.1 18.89 90.07 25.09"/><ellipse id="I-3" data-name="I" class="cls-3" cx="90.89" cy="13.92" rx="0.9" ry="0.84"/></g><path id="S" class="cls-3" d="M1841.07,941.2h.71l-.05-3.72h-.64v1.1a2.41,2.41,0,0,0-.5-.3,2.71,2.71,0,0,0-2.64.27,2.2,2.2,0,0,0-.84,1.07,2.1,2.1,0,0,0,.09,1.57,2.6,2.6,0,0,0,1.32,1.07c.28.14.27.11,1.85.71a2.14,2.14,0,0,1,1,.61,1.72,1.72,0,0,1,.34.66,1.79,1.79,0,0,1-.07,1.1,2,2,0,0,1-1,1,2.44,2.44,0,0,1-1.25.09,4.06,4.06,0,0,1-1.71-.41,2,2,0,0,1-1.14-1.07,1.21,1.21,0,0,1,.78-1.66.72.72,0,0,1,.5,0,.48.48,0,0,1,.27.25c0,.1,0,.17,0,.36a1,1,0,0,0,.05.71.52.52,0,0,0,.27.2.66.66,0,0,0,.48-.07,1.14,1.14,0,0,0,.48-.41,1.38,1.38,0,0,0-.46-1.59,1.75,1.75,0,0,0-1.6-.2,2.1,2.1,0,0,0-1.21,1.05,2.25,2.25,0,0,0-.2,1.37,2.53,2.53,0,0,0,.5,1.19,3.07,3.07,0,0,0,1.89,1,4,4,0,0,0,2.8-.14,3.54,3.54,0,0,0,1.69-1.76,2.68,2.68,0,0,0,.21-1.75,3.07,3.07,0,0,0-1.75-1.84c-.66-.28-1-.17-2-.64-.4-.18-.7-.36-.82-.69a1.1,1.1,0,0,1,.09-.82,1.19,1.19,0,0,1,.57-.53,1.33,1.33,0,0,1,.71-.07,2,2,0,0,1,.8.27,2,2,0,0,1,.5.43Z" transform="translate(-1741.8 -921.33)"/><path id="_" data-name="$" class="cls-3" d="M1857.39,934c.13-.09.05-.43,0-.69l.88,0,0,4.11h-.9v-2.14l-.14-.45-.4-.33-.52-.1-.59.17-.4.29-.1.48.12.55.17.38.43.17v1l-.69.24-.81.33a2.69,2.69,0,0,0-.81.67,3.26,3.26,0,0,0-.62,1.59,5.62,5.62,0,0,0,0,2.09,4.72,4.72,0,0,0,.81,2.07,5.62,5.62,0,0,0,1.62,1.43,3.62,3.62,0,0,0,.67.38,4.78,4.78,0,0,0,4.18-1,3.31,3.31,0,0,0,.71-1.66,5.32,5.32,0,0,0-.07-2.35,3,3,0,0,0-1-1.88,2.41,2.41,0,0,0-1.28-.45,2.35,2.35,0,0,0-1.28.26,2.42,2.42,0,0,0-1.09,1.28,2.87,2.87,0,0,0,.21,2.28,1.25,1.25,0,0,0,.55.69.86.86,0,0,0,1,0c.18-.2,0-.48.19-.62a.49.49,0,0,1,.59.1c.26.29,0,1-.33,1.38a1.8,1.8,0,0,1-1.33.57,2,2,0,0,1-1.45-.81,2.9,2.9,0,0,1-.64-1.35,3.49,3.49,0,0,1,.12-2.07,3.94,3.94,0,0,1,1.43-1.66,12.85,12.85,0,0,1,2.57-1.45l3.14-1.5c.49-.16,1.08-.31,1.24-.76s-.26-1,0-1.21.34,0,.38,0c.39.18.47.74.5,1a2.1,2.1,0,0,1-.26,1.38,2.45,2.45,0,0,1-1.14.9,14.9,14.9,0,0,1-1.78.59c-.53.17-.88.28-.88.43s.19.18.26.21a4.7,4.7,0,0,1,1.47,1.26,3.35,3.35,0,0,1,.64,2,4.51,4.51,0,0,1-.19,2,4.91,4.91,0,0,1-1.21,1.85,5,5,0,0,1-1.78,1.35,5.2,5.2,0,0,1-1.69.36,6.48,6.48,0,0,1-2.83-.1,5.53,5.53,0,0,1-2.71-2.21,5.09,5.09,0,0,1-1-2,4.94,4.94,0,0,1,.45-3.23,5.56,5.56,0,0,1,2.49-2.49,1.24,1.24,0,0,0-.1-.45c-.12-.28-.27-.33-.38-.52a1.42,1.42,0,0,1,.14-1.19,2.25,2.25,0,0,1,1.85-1.4,2.73,2.73,0,0,1,1.14.12C1857.09,934,1857.27,934.13,1857.39,934Z" transform="translate(-1741.8 -921.33)"/><path id="L" class="cls-3" d="M1873.52,934.88h-1.26l0-1,5.13,0v.81l-1.64.07.07,11,.26.36a3,3,0,0,0,.45,0,2.29,2.29,0,0,0,1-.14,1.71,1.71,0,0,0,.93-.86,3.42,3.42,0,0,0,.12-.48c.06-.26.1-.47.12-.62l0-2.92.86,0,.12,6.61h-1.07l0-.86h-6.3l0-1h.88l.21,0,.29,0,.19,0Z" transform="translate(-1741.8 -921.33)"/><g id="O"><path id="O-2" data-name="O" class="cls-3" d="M1880.22,942.22a4.14,4.14,0,0,0,.21,1.66,4.75,4.75,0,0,0,.59,1.21,5.24,5.24,0,0,0,1.28,1.35,4.82,4.82,0,0,0,1.64.76,4.63,4.63,0,0,0,2.59-.12,4.75,4.75,0,0,0,2-1.43,4.57,4.57,0,0,0,1-1.73,4.46,4.46,0,0,0,0-2.42,4.15,4.15,0,0,0-.74-1.66,4.72,4.72,0,0,0-2.95-1.69,5.26,5.26,0,0,0-2.07,0,4.1,4.1,0,0,0-1.57.62,4.27,4.27,0,0,0-1.14,1.19A4.48,4.48,0,0,0,1880.22,942.22Z" transform="translate(-1741.8 -921.33)"/><path id="O-3" data-name="O" class="cls-2" d="M1881.86,940.46a3,3,0,0,1,2-1.54,3.19,3.19,0,0,1,2.33.62,4.45,4.45,0,0,1,1.31,1.33,5.08,5.08,0,0,1,.71,1.57,3.87,3.87,0,0,1,.12,1.71,2.72,2.72,0,0,1-.5,1.26,2.54,2.54,0,0,1-1,.81,2.72,2.72,0,0,1-1.47.14,3.89,3.89,0,0,1-2-.93,4.85,4.85,0,0,1-1.21-1.5,4.72,4.72,0,0,1-.5-1.52A3.19,3.19,0,0,1,1881.86,940.46Z" transform="translate(-1741.8 -921.33)"/></g><polygon id="R-2" data-name="R" class="cls-3" points="149.69 25.04 148.78 25.04 148.81 25.73 152.54 25.78 152.49 24.93 151.37 24.95 151.32 18.46 152.16 17.92 152.61 17.84 153.18 17.84 153.65 18.06 153.82 18.61 153.89 18.8 153.91 20.29 154.56 20.29 154.46 16.44 153.99 16.44 153.96 16.8 153.3 16.8 152.49 16.89 151.97 17.13 151.56 17.61 151.32 17.58 151.37 17.2 151.78 16.8 151.25 16.44 148.76 18.96 149.09 19.32 149.64 18.8 149.69 25.04"/><g id="I-4" data-name="I"><polygon id="I-5" data-name="I" class="cls-3" points="156.03 25 155.29 24.97 155.27 25.64 158.83 25.68 158.76 24.9 157.79 24.93 157.79 17.06 158.14 16.73 157.62 16.37 155.22 18.91 155.48 19.32 156.05 18.8 156.03 25"/><ellipse id="I-6" data-name="I" class="cls-3" cx="156.85" cy="13.83" rx="0.9" ry="0.84"/></g><path id="S-2" data-name="S" class="cls-3" d="M1910.78,941.29h.71l-.05-3.72h-.64v1.1a2.41,2.41,0,0,0-.5-.3,2.71,2.71,0,0,0-2.64.27,2.2,2.2,0,0,0-.84,1.07,2.1,2.1,0,0,0,.09,1.57,2.6,2.6,0,0,0,1.32,1.07c.28.14.27.11,1.85.71a2.14,2.14,0,0,1,1,.61,1.72,1.72,0,0,1,.34.66,1.79,1.79,0,0,1-.07,1.1,2,2,0,0,1-1,1,2.44,2.44,0,0,1-1.25.09,4.06,4.06,0,0,1-1.71-.41,2,2,0,0,1-1.14-1.07,1.21,1.21,0,0,1,.78-1.66.72.72,0,0,1,.5,0,.48.48,0,0,1,.27.25c0,.1,0,.17,0,.36a1,1,0,0,0,.05.71.52.52,0,0,0,.27.2.66.66,0,0,0,.48-.07,1.14,1.14,0,0,0,.48-.41,1.38,1.38,0,0,0-.46-1.59,1.75,1.75,0,0,0-1.6-.2,2.1,2.1,0,0,0-1.21,1.05,2.25,2.25,0,0,0-.2,1.37,2.53,2.53,0,0,0,.5,1.19,3.07,3.07,0,0,0,1.89,1,4,4,0,0,0,2.8-.14,3.54,3.54,0,0,0,1.69-1.76,2.68,2.68,0,0,0,.21-1.75,3.07,3.07,0,0,0-1.75-1.84c-.66-.28-1-.17-2-.64-.4-.18-.7-.36-.82-.69a1.1,1.1,0,0,1,.09-.82,1.19,1.19,0,0,1,.57-.53,1.33,1.33,0,0,1,.71-.07,2,2,0,0,1,.8.27,2,2,0,0,1,.5.43Z" transform="translate(-1741.8 -921.33)"/><path class="cls-3" d="M1902.46,937.47c.13,0,.3,0,.86-.69a5.09,5.09,0,0,0,.57-.71,1.83,1.83,0,0,0,0-1.57,1.18,1.18,0,0,0-.81-.69,1,1,0,0,0-.81.26,1,1,0,0,0-.36.81c.1.49.79.53.81,1a1.2,1.2,0,0,1-.29.62,1.64,1.64,0,0,0-.26.48.46.46,0,0,0,0,.29A.4.4,0,0,0,1902.46,937.47Z" transform="translate(-1741.8 -921.33)"/></g><g id="Bakehouse"><g id="B"><path class="cls-3" d="M1776.65,987.41l-1-.14a.68.68,0,0,1-.5-.37l-.29-.57a.68.68,0,0,1,0-.65l.43-.71a.68.68,0,0,1,.34-.29l1.06-.4.66-.45.21-.58-.14-6,0-11.09-.27-3.81-.45-.51-.64-.39-1.13-.13-.17,0L1774,961a.68.68,0,0,1-.39-.4l-.19-.52a.68.68,0,0,1,.1-.64l.62-.81a.68.68,0,0,1,.4-.25l1.14-.24h.14l4.39.14,1.61,0,3.57-.38,2.07-.14,2.09.14,1.66.35,1.58.49a.68.68,0,0,1,.24.14l1.09,1a.66.66,0,0,1,.13.15l.9,1.43a.68.68,0,0,1,.07.14l.47,1.38a.71.71,0,0,1,0,.15l.14,1.38.1,1.6a.67.67,0,0,1,0,.23l-.43,1.47a.66.66,0,0,1-.08.18l-1.09,1.71a.67.67,0,0,1-.16.18l-1.14.85-.35.22,1.43.44a.68.68,0,0,1,.18.09l1.24.86.12.1,1,1,.77,1.12a.7.7,0,0,1,.09.2l.33,1.19a.75.75,0,0,1,0,.12l.1,1.09,0,1.51-.19,1.85a.67.67,0,0,1-.06.21l-1,2.17a.65.65,0,0,1-.09.14l-1.42,1.79-.11.11-1.75,1.37-.12.08-.44.22a7.7,7.7,0,0,1-3.27.77l-2.7,0-4.61-.24-2.46-.14-1.23.14-1.74.24h-.19Z" transform="translate(-1741.8 -921.33)"/><path class="cls-1" d="M1787.53,958.47l2,.14,1.57.33,1.52.48,1.09,1,.9,1.43.48,1.38.14,1.38.1,1.57-.43,1.47-1.09,1.71-1.14.86-1.66,1,1.43.33,1.52.48,1.24.86,1,1,.71,1,.33,1.19.1,1.09,0,1.47-.18,1.76-1,2.17-1.42,1.79-1.75,1.37-.44.22a7,7,0,0,1-3,.7l-2.66,0-4.61-.24-2.52-.14-1.28.14-1.76.24-1-.14-.29-.57.43-.71,1.14-.43.9-.62.33-.9-.14-6.08,0-11.07-.29-4.09-.67-.76-.86-.52-1.28-.14-.86-.33-.19-.52.62-.81,1.14-.24,4.37.14,1.62,0,3.66-.38,2-.14m0-1.35h-.09l-2,.14-3.61.37-1.53,0-4.37-.14h0l-.28,0-1.14.24a1.35,1.35,0,0,0-.8.5l-.62.81a1.35,1.35,0,0,0-.2,1.29l.19.52a1.35,1.35,0,0,0,.78.8l.86.33a1.35,1.35,0,0,0,.34.08l1,.11.42.26.23.26.25,3.58,0,11,.14,5.86-.09.26-.41.28-1,.37a1.35,1.35,0,0,0-.69.57l-.43.71a1.35,1.35,0,0,0,0,1.3l.29.57a1.35,1.35,0,0,0,1,.73l1,.14h.38l1.76-.24,1.14-.13,2.41.14,4.62.24h.08l2.66,0a8.39,8.39,0,0,0,3.56-.84l.44-.22a1.35,1.35,0,0,0,.24-.15l1.75-1.37a1.36,1.36,0,0,0,.23-.22l1.42-1.79a1.36,1.36,0,0,0,.17-.29l1-2.17a1.35,1.35,0,0,0,.11-.41l.18-1.76a1.35,1.35,0,0,0,0-.18l0-1.47s0,0,0-.07l-.1-1.09a1.35,1.35,0,0,0,0-.25l-.33-1.19a1.35,1.35,0,0,0-.19-.4l-.71-1-.12-.15-1-1a1.35,1.35,0,0,0-.23-.2l-1.24-.86a1.35,1.35,0,0,0-.37-.18l-.13,0,.39-.29a1.35,1.35,0,0,0,.33-.35l1.09-1.71a1.35,1.35,0,0,0,.16-.35l.43-1.47a1.35,1.35,0,0,0,.05-.46l-.1-1.57v-.06l-.14-1.38a1.36,1.36,0,0,0-.07-.3l-.48-1.38a1.35,1.35,0,0,0-.14-.28l-.9-1.43a1.36,1.36,0,0,0-.26-.3l-1.09-1a1.35,1.35,0,0,0-.48-.27l-1.52-.48-.12,0-1.57-.33-.18,0-2-.14Z" transform="translate(-1741.8 -921.33)"/><path class="cls-2" d="M1786.33,970.51a3.56,3.56,0,0,1-.68-.07l-1.17-.19a.68.68,0,0,1-.57-.66l-.14-7.94a.68.68,0,0,1,.46-.66,4.5,4.5,0,0,1,1.23-.22h.23a4,4,0,0,1,2.16.59,4.56,4.56,0,0,1,1.72,3.31,7.93,7.93,0,0,1,0,2.27,4.64,4.64,0,0,1-.46,1.82A3.27,3.27,0,0,1,1788,970,3.11,3.11,0,0,1,1786.33,970.51Z" transform="translate(-1741.8 -921.33)"/><path class="cls-1" d="M1785.7,961.46a3.33,3.33,0,0,1,1.79.48,3.94,3.94,0,0,1,1.43,2.85,7.29,7.29,0,0,1,0,2.09,4,4,0,0,1-.38,1.57,2.58,2.58,0,0,1-.86,1,2.43,2.43,0,0,1-1.35.39,2.88,2.88,0,0,1-.55-.05l-1.19-.19-.14-7.94a3.8,3.8,0,0,1,1-.19h.21m0-1.35h-.26a5.15,5.15,0,0,0-1.42.26,1.35,1.35,0,0,0-.93,1.31l.14,7.94a1.35,1.35,0,0,0,1.14,1.31l1.19.19a4.06,4.06,0,0,0,.77.07,3.78,3.78,0,0,0,2.1-.61,3.94,3.94,0,0,0,1.3-1.49,5.25,5.25,0,0,0,.53-2.07,8.51,8.51,0,0,0,0-2.45,5.21,5.21,0,0,0-2-3.76,4.65,4.65,0,0,0-2.53-.7Z" transform="translate(-1741.8 -921.33)"/><path class="cls-2" d="M1787.12,984.1a5.1,5.1,0,0,1-.84-.07l-1.54-.21a.68.68,0,0,1-.59-.66l-.19-8.87a.68.68,0,0,1,.49-.67,6.49,6.49,0,0,1,1.54-.24h.29a5.65,5.65,0,0,1,2.69.62,4.84,4.84,0,0,1,2.21,3.65,7.57,7.57,0,0,1,0,2.55,4.57,4.57,0,0,1-.6,2,3.71,3.71,0,0,1-1.37,1.35A4.31,4.31,0,0,1,1787.12,984.1Z" transform="translate(-1741.8 -921.33)"/><path class="cls-1" d="M1786.28,974.06a5,5,0,0,1,2.36.54,4.2,4.2,0,0,1,1.88,3.19,6.93,6.93,0,0,1,0,2.34,3.94,3.94,0,0,1-.5,1.75,3.06,3.06,0,0,1-1.13,1.12,3.64,3.64,0,0,1-1.78.43,4.44,4.44,0,0,1-.73-.06l-1.57-.21-.19-8.87a5.81,5.81,0,0,1,1.38-.21h.27m0-1.35H1786a7.17,7.17,0,0,0-1.7.26,1.35,1.35,0,0,0-1,1.33l.19,8.87a1.35,1.35,0,0,0,1.17,1.31l1.57.21a5.62,5.62,0,0,0,.91.07,5,5,0,0,0,2.44-.6,4.37,4.37,0,0,0,1.61-1.58,5.21,5.21,0,0,0,.7-2.32,8.14,8.14,0,0,0,0-2.76,5.5,5.5,0,0,0-2.55-4.11,6.32,6.32,0,0,0-3-.71Z" transform="translate(-1741.8 -921.33)"/></g><g id="A"><path class="cls-3" d="M1803,988.28a.68.68,0,0,1-.24,0l-1.28-.48a.71.71,0,0,1-.17-.09l-1.14-.85a.67.67,0,0,1-.17-.19l-.76-1.24a.67.67,0,0,1-.09-.23l-.38-2a.68.68,0,0,1,0-.24l.29-1.62a.62.62,0,0,1,0-.12l.48-1.28a.67.67,0,0,1,.11-.2l.71-.85a6.29,6.29,0,0,1,1.76-1.44,11,11,0,0,1,1.13-.53,5.16,5.16,0,0,0,.52-.24,10.16,10.16,0,0,1,2.74-.82l.8-.17v-1.83a1.38,1.38,0,0,0,0-.2l0-1a1.08,1.08,0,0,0-.28-.47l-.32-.32-.84-.73-.67-.06-.22.12.06,1.54a1.88,1.88,0,0,1-.22,1l-.19.35a1.9,1.9,0,0,1-.84.82l-.88.44-.12,0-1.11.32a1.72,1.72,0,0,1-.47.07l-.25,0-.41-.06a1.32,1.32,0,0,1-1-.66l-.08-.15a1.51,1.51,0,0,1-.19-.93v-.87a1.49,1.49,0,0,1,.06-.41l.35-1.27a1.3,1.3,0,0,1,.31-.56l1.17-1.29a1.15,1.15,0,0,1,.37-.28l1.62-.76.15-.05,1.81-.38h.11l1.17,0h.11l1.47.24,1.24.3.13,0,1.24.57a.68.68,0,0,1,.23.17l.67.76.56.76.05.09.47.9a.68.68,0,0,1,.06.17l.33,1.57a.6.6,0,0,1,0,.13l0,3.8.14,5.29.14.59.27.11h.82l.76,0a.68.68,0,0,1,.68.68v.62a.67.67,0,0,1-.11.36l-.67,1a.67.67,0,0,1-.16.18l-1.38,1a.67.67,0,0,1-.24.12l-1.28.33-.17,0-1.17,0a.68.68,0,0,1-.31-.09l-1.24-.71a.67.67,0,0,1-.18-.16l-.74-.89-1.2.86-1.5.81-1,.48a.67.67,0,0,1-.25.07Z" transform="translate(-1741.8 -921.33)"/><path class="cls-1" d="M1806.4,968.69l1.47.24,1.19.29,1.24.57.67.76.52.71.48.9.33,1.57,0,3.8.1,3.52,0,1.85.24,1,.71.29h1l.76,0v.62l-.67,1-1.38,1-1.28.33-1.14,0-1.24-.71L1808.3,985l-1.71,1.24-1.43.76-1,.48-1.24.1-1.28-.48-1.14-.86-.76-1.24-.38-2,.29-1.62.48-1.28.71-.86a5.63,5.63,0,0,1,1.57-1.28c.72-.4,1.28-.56,1.66-.77a18.31,18.31,0,0,1,3.88-1v-2.37a2,2,0,0,0,0-.3v-.86a1.7,1.7,0,0,0-.48-.94l-.32-.32-1-.9-1.09-.1-.76.43.08,2a1.21,1.21,0,0,1-.14.61l-.19.36a1.24,1.24,0,0,1-.54.53l-.88.44-1.11.32a1,1,0,0,1-.29,0H1801l-.41-.06a.65.65,0,0,1-.47-.32l-.09-.15a.85.85,0,0,1-.11-.51v-.95a.84.84,0,0,1,0-.22l.35-1.27a.63.63,0,0,1,.15-.27l1.18-1.3a.5.5,0,0,1,.16-.12l1.62-.76,1.81-.38,1.14,0m0-1.35h-.06l-1.14,0-.22,0-1.81.38a1.36,1.36,0,0,0-.3.1l-1.62.76a1.85,1.85,0,0,0-.59.44l-1.18,1.3a2,2,0,0,0-.46.84l-.35,1.25a2.2,2.2,0,0,0-.08.58V974a2.19,2.19,0,0,0,.29,1.24l.09.15a2,2,0,0,0,1.45,1l.41.06.36,0a2.39,2.39,0,0,0,.66-.09L1803,976l.23-.09.88-.44a2.58,2.58,0,0,0,1.14-1.12l.19-.36a2.57,2.57,0,0,0,.29-1.3l0-.83.58.5.29.29a.34.34,0,0,1,.08.13v.72a1.35,1.35,0,0,0,0,.19.62.62,0,0,1,0,.1v1.29l-.27.06a10.54,10.54,0,0,0-2.92.89c-.09.05-.26.12-.44.2a11.62,11.62,0,0,0-1.2.57,7,7,0,0,0-1.95,1.59l-.72.87a1.35,1.35,0,0,0-.23.4l-.48,1.28a1.35,1.35,0,0,0-.06.24l-.29,1.62a1.35,1.35,0,0,0,0,.49l.38,2a1.36,1.36,0,0,0,.18.46l.76,1.24a1.35,1.35,0,0,0,.34.37l1.14.86a1.36,1.36,0,0,0,.34.19l1.28.48a1.35,1.35,0,0,0,.47.08h.1l1.24-.1a1.35,1.35,0,0,0,.5-.14l1-.48,1.46-.78.16-.1.68-.49.33.4a1.35,1.35,0,0,0,.37.31l1.24.71a1.35,1.35,0,0,0,.62.18l1.14,0h.06a1.35,1.35,0,0,0,.34,0l1.28-.33a1.35,1.35,0,0,0,.48-.23l1.38-1a1.36,1.36,0,0,0,.32-.35l.67-1a1.35,1.35,0,0,0,.21-.73v-.62a1.35,1.35,0,0,0-1.35-1.35h-.08l-.72,0h-.48l0-.1,0-1.71-.1-3.52,0-3.78a1.35,1.35,0,0,0,0-.26l-.33-1.57a1.36,1.36,0,0,0-.13-.35l-.48-.9-.11-.17-.52-.71-.07-.09-.67-.76a1.35,1.35,0,0,0-.45-.34l-1.24-.57-.25-.09-1.19-.29-.1,0-1.47-.24-.22,0Z" transform="translate(-1741.8 -921.33)"/><path class="cls-2" d="M1805.75,983.94a1.41,1.41,0,0,1-.67-.16,1.92,1.92,0,0,1-.83-1.72,2.9,2.9,0,0,1,.12-.89,3.94,3.94,0,0,1,.76-1.46,4.48,4.48,0,0,1,1.3-1.11.68.68,0,0,1,1,.59l0,3.47a.67.67,0,0,1-.07.3,1.77,1.77,0,0,1-.93.85A1.83,1.83,0,0,1,1805.75,983.94Z" transform="translate(-1741.8 -921.33)"/><path class="cls-1" d="M1806.76,979.19l0,3.47a1.1,1.1,0,0,1-.57.52,1.15,1.15,0,0,1-.41.08.74.74,0,0,1-.35-.08c-.44-.23-.47-.88-.48-1.14a2.21,2.21,0,0,1,.1-.69,3.29,3.29,0,0,1,.63-1.21,3.8,3.8,0,0,1,1.1-.94m0-1.35a1.35,1.35,0,0,0-.67.18,5.13,5.13,0,0,0-1.5,1.28,4.63,4.63,0,0,0-.88,1.7,3.55,3.55,0,0,0-.14,1.09,2.47,2.47,0,0,0,1.19,2.29,2.08,2.08,0,0,0,1,.24,2.48,2.48,0,0,0,.9-.17,2.44,2.44,0,0,0,1.29-1.17,1.35,1.35,0,0,0,.15-.6l0-3.47a1.35,1.35,0,0,0-1.35-1.36Zm0,2.71h0Z" transform="translate(-1741.8 -921.33)"/></g><g id="K"><path class="cls-3" d="M1830,987.3a.68.68,0,0,1-.55-.29l-.86-1.21-3.65-6.69-.37.41,0,2.87,0,1,.09.19a.69.69,0,0,0,.34.33l.61.27.1,0h.76a.68.68,0,0,1,.63.43l.33.86a.67.67,0,0,1,0,.35l-.12.76a.68.68,0,0,1-.67.57l-8.92-.07a.68.68,0,0,1-.67-.65l0-1a.68.68,0,0,1,.5-.69l.91-.24a.19.19,0,0,0,.14-.18l0-1.06.06-9.82c0-1.91,0-3.86,0-5.8s0-3.73,0-5.57l-.16-.22-.13-.12h-.41l-1.08,0a.68.68,0,0,1-.61-.42l-.19-.45a.67.67,0,0,1-.05-.26v-.45a.68.68,0,0,1,.35-.59l.43-.24a.66.66,0,0,1,.19-.07l1.12-.24,1.33-.43,1-.39,1.15-.67.74-.52.16-.08.55-.19a.68.68,0,0,1,.47,0l.24.09a.68.68,0,0,1,.4.45l.12.43a.65.65,0,0,1,0,.18l0,9.19,0,8.67v.11l1.2-1,2.68-2.59a.67.67,0,0,1,.22-.14l.13-.05v0l-.06-.32-.38,0a.68.68,0,0,1-.34-.12l-.38-.26a.68.68,0,0,1-.29-.57l0-1.12a.68.68,0,0,1,.68-.66h7.1a.68.68,0,0,1,.68.69l0,1.19a.68.68,0,0,1-.42.62l-.71.29-.14,0L1833,972l-.87.62-2.71,2.46,0,.18,3.07,5.33,1.84,2.68,1.11.91.12.07.81.15a.68.68,0,0,1,.4.23l.26.31a.68.68,0,0,1,.15.35l.07.52v.64a.68.68,0,0,1-.54.66l-.83.17h-.22l-1.4-.19h-2.22l-.56.11Z" transform="translate(-1741.8 -921.33)"/><path class="cls-1" d="M1823.41,957.38l.24.1.12.43,0,9.19,0,8.67.12,1,.57,0,1.64-1.4,2.71-2.61.43-.17.17-.5-.12-.67-.31-.36-.67,0-.38-.26,0-1.12h7.1l0,1.19-.71.29-1.54.26-1,.71-3,2.76.1.67,3.14,5.44,1.92,2.8,1.19,1,.31.19.93.17.26.31.07.52v.55l-.83.17-1.4-.19H1832l-.62.12-1.38.07-.86-1.21L1825.1,978l-1.19,1.31,0,3.14,0,1.21.16.32a1.37,1.37,0,0,0,.67.64l.61.27a.92.92,0,0,0,.37.08h.76l.33.86-.12.76-8.91-.07,0-1,.91-.24a.87.87,0,0,0,.65-.81l0-1.06.06-9.84c0-3.83.08-7.76.06-11.59l-.33-.45-.36-.33-.67,0-1.09,0-.19-.45v-.45l.43-.24,1.12-.24,1.4-.45,1-.4,1.24-.71.78-.55.55-.19M1835,969.64h0M1823.41,956a1.35,1.35,0,0,0-.44.08l-.55.19a1.35,1.35,0,0,0-.33.17l-.74.51-1.1.63-.89.35-1.29.42-1,.22a1.35,1.35,0,0,0-.38.14l-.43.24a1.35,1.35,0,0,0-.7,1.18v.45a1.35,1.35,0,0,0,.11.53l.19.45a1.35,1.35,0,0,0,1.22.83l1.09,0h0c0,1.74,0,3.51,0,5.23,0,1.91,0,3.89,0,5.82l-.06,9.82,0,.67-.56.15a1.35,1.35,0,0,0-1,1.37l0,1a1.35,1.35,0,0,0,1.34,1.29l8.91.07h0a1.35,1.35,0,0,0,1.34-1.15l.06-.39.75,1.06a1.35,1.35,0,0,0,1.11.57h.07l1.38-.07.19,0,.49-.09h2.16l1.31.18h.18l.27,0,.83-.17a1.35,1.35,0,0,0,1.09-1.33v-.55a1.35,1.35,0,0,0,0-.18l-.07-.52a1.35,1.35,0,0,0-.31-.69l-.26-.31a1.35,1.35,0,0,0-.79-.46l-.67-.12h0l-1-.79-1.79-2.6-2.85-4.94,2.36-2.14.68-.49,1.24-.21a1.35,1.35,0,0,0,.28-.08l.71-.29a1.35,1.35,0,0,0,.85-1.23l0-1.1s0-.07,0-.11a1.35,1.35,0,0,0-1.35-1.35h-7.11a1.35,1.35,0,0,0-1.35,1.33l0,1.12a1.35,1.35,0,0,0,.59,1.14l.35.24-2.33,2.25-.07.06,0-7.33,0-9.18a1.35,1.35,0,0,0,0-.37l-.12-.43a1.35,1.35,0,0,0-.8-.9l-.24-.1a1.35,1.35,0,0,0-.5-.1Zm1.91,27.23,0-.91v-1.23l1.33,2.45h-.73l-.52-.23,0-.07Z" transform="translate(-1741.8 -921.33)"/><path class="cls-2" d="M1826,984.62a.68.68,0,0,1-.32-.09l-.55-.31a.68.68,0,0,1-.26-.27l-.17-.31a.65.65,0,0,1-.05-.13l-.17-.55a.66.66,0,0,1,0-.2l0-2.14a.68.68,0,0,1,.51-.65l.16,0a.68.68,0,0,1,.59.35l1.81,3.33a.68.68,0,0,1-.59,1Z" transform="translate(-1741.8 -921.33)"/><path class="cls-1" d="M1825.15,980.64,1827,984l-1,0-.55-.31-.17-.31-.17-.55,0-2.14m0-1.35a1.35,1.35,0,0,0-1.35,1.34l0,2.14a1.35,1.35,0,0,0,.06.41l.17.55a1.36,1.36,0,0,0,.1.25l.17.31a1.35,1.35,0,0,0,.53.54l.55.31a1.35,1.35,0,0,0,.63.17l1,0h0a1.35,1.35,0,0,0,1.19-2l-1.81-3.33a1.35,1.35,0,0,0-1.19-.71Z" transform="translate(-1741.8 -921.33)"/></g><g id="E"><path class="cls-3" d="M1845.33,987.95l-2.49-.27-.23,0-.87-.29a1.16,1.16,0,0,1-.27-.13l-1.11-.74-.11-.08-1.18-1a1.13,1.13,0,0,1-.22-.25l-.73-1.16-.08-.15-.75-1.71a1.19,1.19,0,0,1-.08-.25l-.48-2.5a1.8,1.8,0,0,1,0-.21l0-2.31a1.08,1.08,0,0,1,0-.33l.65-2.23,0-.11.76-1.86a1.82,1.82,0,0,1,.11-.21l.91-1.34a1.12,1.12,0,0,1,.17-.2l1.34-1.24a1.17,1.17,0,0,1,.27-.19l1.82-.9a1.15,1.15,0,0,1,.4-.11l1.14-.1h.13l2.12.07a1.12,1.12,0,0,1,.47.12l1.45.72.16.1,1.45,1.08a1.09,1.09,0,0,1,.26.27l1.42,2.06a1.1,1.1,0,0,1,.14.28l.8,2.34a1.13,1.13,0,0,1,.06.47l-.11,1.09a1.12,1.12,0,0,1-.51.83l-.2.13a1.13,1.13,0,0,1-.61.18l-8.62-.07.34,2.55,1,1.87,1.08,1,1.3.5,1.32,0,.93-.16,1.08-.36.67-.62a1.11,1.11,0,0,1,.43-.25l.25-.08a1.13,1.13,0,0,1,1.15,1.85l-.47.5-.54.64-.08.09-.92.88-.15.12-1.31.87a1.17,1.17,0,0,1-.26.13l-1.42.47-.13,0-1.34.27-.22,0Zm-2.23-7.62" transform="translate(-1741.8 -921.33)"/><path class="cls-1" d="M1844.45,968.71h0l2.12.07a.45.45,0,0,1,.19,0l1.44.72.07,0,1.44,1.07a.45.45,0,0,1,.1.11l1.42,2.06a.45.45,0,0,1,.05.11l.8,2.34a.45.45,0,0,1,0,.19l-.11,1.08a.45.45,0,0,1-.2.33l-.21.13a.45.45,0,0,1-.24.07h0l-8.91-.07h0a.45.45,0,0,0-.43.31l0,.2.39,2.88a.45.45,0,0,0,0,.12l1,1.91a.45.45,0,0,0,.09.12l1.13,1a.45.45,0,0,0,.14.09l1.37.54a.45.45,0,0,0,.16,0h0l1.41,0h.07l1-.17.07,0,1.16-.39a.45.45,0,0,0,.16-.09l.71-.65a.45.45,0,0,1,.17-.1l.25-.08.13,0a.45.45,0,0,1,.33.76l-.47.5,0,0-.55.65,0,0-.92.88-.06.05-1.31.87-.11.05-1.41.47h-.05l-1.33.27h-.14l-2.49-.27-.09,0-.86-.29-.11-.05-1.1-.74,0,0-1.18-1a.45.45,0,0,1-.09-.1l-.73-1.16,0-.06-.75-1.71a.45.45,0,0,1,0-.1l-.48-2.51a.44.44,0,0,1,0-.08l0-2.32a.45.45,0,0,1,0-.13l.65-2.23,0,0,.76-1.86,0-.08.91-1.34.07-.08,1.34-1.24.11-.07,1.83-.9a.45.45,0,0,1,.16,0l1.14-.1h0m0-1.35h-.15l-1.14.1a1.8,1.8,0,0,0-.64.18l-1.83.9a1.8,1.8,0,0,0-.43.29l-1.34,1.24a1.81,1.81,0,0,0-.27.32l-.91,1.34a1.8,1.8,0,0,0-.18.33l-.76,1.86-.06.18-.65,2.23a1.8,1.8,0,0,0-.07.53l0,2.32a1.79,1.79,0,0,0,0,.31l.48,2.51a1.81,1.81,0,0,0,.12.39l.75,1.71a1.82,1.82,0,0,0,.12.23l.73,1.16a1.8,1.8,0,0,0,.35.41l1.18,1,.17.13,1.11.74a1.8,1.8,0,0,0,.43.21l.86.29a1.81,1.81,0,0,0,.37.08l2.48.27h.2a1.81,1.81,0,0,0,.35,0l1.33-.27.22-.06,1.41-.47a1.8,1.8,0,0,0,.43-.21l1.31-.87a1.8,1.8,0,0,0,.25-.2l.92-.88.13-.14.53-.63.46-.48a1.8,1.8,0,0,0-1.83-3l-.25.08a1.81,1.81,0,0,0-.69.4l-.57.52-.91.3-.83.14-1.16,0-1-.41-.89-.81-.85-1.62-.22-1.66,7.83.06a1.81,1.81,0,0,0,1-.29l.21-.13a1.79,1.79,0,0,0,.82-1.33l.11-1.08a1.81,1.81,0,0,0-.09-.77l-.8-2.34a1.8,1.8,0,0,0-.22-.44l-1.42-2.06a1.8,1.8,0,0,0-.41-.42l-1.44-1.07a1.81,1.81,0,0,0-.27-.17l-1.44-.72a1.81,1.81,0,0,0-.75-.19l-2.12-.07Z" transform="translate(-1741.8 -921.33)"/><path class="cls-2" d="M1843.29,974.91a.68.68,0,0,1-.67-.71l.1-1.81a.68.68,0,0,1,0-.17,2.51,2.51,0,0,1,1.29-1.6,1.49,1.49,0,0,1,.56-.11,2.12,2.12,0,0,1,1.12.38,3.38,3.38,0,0,1,1.21,2.82,2.19,2.19,0,0,1,0,.79.68.68,0,0,1-.64.47Z" transform="translate(-1741.8 -921.33)"/><path class="cls-1" d="M1844.6,971.18a1.47,1.47,0,0,1,.76.27,2.75,2.75,0,0,1,.89,2.28,1.93,1.93,0,0,1,0,.54l-2.95,0,.1-1.81a1.89,1.89,0,0,1,.9-1.19.81.81,0,0,1,.31-.06m0-1.35a2.16,2.16,0,0,0-.82.16,3.14,3.14,0,0,0-1.68,2,1.35,1.35,0,0,0-.06.34l-.1,1.81a1.35,1.35,0,0,0,1.33,1.43l2.95,0h0a1.35,1.35,0,0,0,1.29-.94,2.56,2.56,0,0,0,.08-.95v-.08a4,4,0,0,0-1.51-3.35,2.76,2.76,0,0,0-1.49-.49Z" transform="translate(-1741.8 -921.33)"/></g><g id="E-2" data-name="E"><path class="cls-3" d="M1935,987.87l-2.49-.27-.23,0-.87-.29a1.15,1.15,0,0,1-.27-.13l-1.11-.74-.11-.08-1.17-1a1.1,1.1,0,0,1-.23-.26l-.72-1.15-.08-.15L1927,982a1.14,1.14,0,0,1-.07-.23l-.48-2.52a1.8,1.8,0,0,1,0-.21l0-2.31a1.09,1.09,0,0,1,0-.33l.65-2.23,0-.11.76-1.86a1.82,1.82,0,0,1,.11-.21l.91-1.34a1.06,1.06,0,0,1,.17-.2l1.34-1.24a1.12,1.12,0,0,1,.27-.19l1.82-.9a1.12,1.12,0,0,1,.4-.11l1.14-.1h.13l2.12.07a1.13,1.13,0,0,1,.46.12l1.45.73.16.1,1.45,1.08a1.11,1.11,0,0,1,.25.26l1.42,2.07a1.14,1.14,0,0,1,.14.27l.81,2.35a1.15,1.15,0,0,1,.05.48l-.11,1.07a1.12,1.12,0,0,1-.51.83l-.21.13a1.14,1.14,0,0,1-.61.18l-8.62-.07.35,2.56,1,1.87,1.08,1,1.3.5,1.32,0,.93-.16,1.13-.38.63-.6a1.11,1.11,0,0,1,.43-.25l.25-.08a1.14,1.14,0,0,1,.33,0,1.13,1.13,0,0,1,.82,1.9l-.47.5-.54.64-.07.08-.93.89-.14.12-1.32.88a1.17,1.17,0,0,1-.27.13l-1.41.47-.12,0-1.35.27-.22,0Z" transform="translate(-1741.8 -921.33)"/><path class="cls-1" d="M1934.12,968.64h0l2.12.07a.45.45,0,0,1,.19,0l1.44.72.07,0,1.44,1.07a.45.45,0,0,1,.1.11l1.42,2.06a.45.45,0,0,1,.05.11l.8,2.34a.45.45,0,0,1,0,.19l-.11,1.08a.45.45,0,0,1-.2.33l-.21.13a.45.45,0,0,1-.24.07h0l-8.91-.07h0a.45.45,0,0,0-.43.31l0,.2.39,2.88a.45.45,0,0,0,0,.12l1,1.91a.45.45,0,0,0,.09.12l1.13,1a.45.45,0,0,0,.14.09l1.37.54a.45.45,0,0,0,.16,0h0l1.41,0h.07l1-.17.07,0,1.16-.39a.45.45,0,0,0,.16-.09l.71-.65a.45.45,0,0,1,.17-.1l.25-.08.13,0a.45.45,0,0,1,.44.36h0a.45.45,0,0,1-.11.4l-.47.5,0,0-.55.65,0,0-.92.88-.06.05-1.31.87-.11.05-1.41.47h-.05l-1.33.27h-.14l-2.49-.27-.09,0-.86-.29-.11-.05-1.1-.74,0,0-1.18-1a.45.45,0,0,1-.09-.1l-.73-1.16,0-.06-.75-1.71a.45.45,0,0,1,0-.1l-.48-2.51a.45.45,0,0,1,0-.08l0-2.32a.45.45,0,0,1,0-.13l.65-2.23,0,0,.76-1.86,0-.08.91-1.34.07-.08,1.34-1.24.11-.07,1.83-.9a.45.45,0,0,1,.16,0l1.14-.1h0m0-1.35H1934l-1.14.1a1.8,1.8,0,0,0-.64.18l-1.82.9a1.8,1.8,0,0,0-.43.3l-1.34,1.24a1.8,1.8,0,0,0-.27.32l-.91,1.34a1.8,1.8,0,0,0-.18.33l-.76,1.86-.06.17-.65,2.24a1.81,1.81,0,0,0-.07.53l0,2.32a1.83,1.83,0,0,0,0,.32l.48,2.51a1.81,1.81,0,0,0,.12.39l.75,1.71a1.8,1.8,0,0,0,.12.23l.73,1.17a1.81,1.81,0,0,0,.35.41l1.17,1,.17.13,1.1.74a1.81,1.81,0,0,0,.43.21l.86.29a1.8,1.8,0,0,0,.37.08l2.48.27h.2a1.81,1.81,0,0,0,.35,0l1.33-.27.21-.06,1.42-.47a1.8,1.8,0,0,0,.43-.21l1.31-.87a1.81,1.81,0,0,0,.25-.2l.92-.88.13-.13.53-.63.45-.48a1.8,1.8,0,0,0-1.83-3l-.25.08a1.81,1.81,0,0,0-.69.4l-.57.52-.91.3-.83.14-1.16,0-1-.41-.89-.81-.85-1.62-.22-1.66,7.83.06a1.81,1.81,0,0,0,1-.29l.2-.13a1.79,1.79,0,0,0,.82-1.33l.11-1.08a1.82,1.82,0,0,0-.09-.77l-.8-2.34a1.81,1.81,0,0,0-.22-.44l-1.42-2.06a1.8,1.8,0,0,0-.41-.42l-1.44-1.07a1.8,1.8,0,0,0-.27-.17l-1.44-.72a1.82,1.82,0,0,0-.75-.19l-2.12-.07Z" transform="translate(-1741.8 -921.33)"/></g><path class="cls-2" d="M1933,974.84a.68.68,0,0,1-.67-.71l.1-1.81a.68.68,0,0,1,0-.17,2.52,2.52,0,0,1,1.29-1.6,1.48,1.48,0,0,1,.56-.11,2.12,2.12,0,0,1,1.13.38,3.33,3.33,0,0,1,1.2,2.82,2.22,2.22,0,0,1,0,.78.68.68,0,0,1-.65.47Z" transform="translate(-1741.8 -921.33)"/><path class="cls-1" d="M1934.27,971.11a1.47,1.47,0,0,1,.76.27,2.75,2.75,0,0,1,.89,2.28,1.92,1.92,0,0,1,0,.54l-2.95,0,.1-1.81a1.89,1.89,0,0,1,.9-1.19.81.81,0,0,1,.31-.06m0-1.35a2.16,2.16,0,0,0-.82.16,3.14,3.14,0,0,0-1.68,2,1.35,1.35,0,0,0-.06.34l-.1,1.81a1.35,1.35,0,0,0,1.33,1.43l2.95,0h0a1.35,1.35,0,0,0,1.29-.94,2.56,2.56,0,0,0,.08-1v-.08a4,4,0,0,0-1.51-3.35,2.76,2.76,0,0,0-1.49-.49Z" transform="translate(-1741.8 -921.33)"/><g id="H-2" data-name="H"><path class="cls-3" d="M1865.51,987.23a.68.68,0,0,1-.5-.22l-.41-.45a.68.68,0,0,1-.25.28l-.38.24a.67.67,0,0,1-.36.1l-2.17-.1-2.37-.09-1.67,0-1.8.19H1855a.68.68,0,0,1-.63-.43l-.19-.48a.67.67,0,0,1,0-.25v-.67a.68.68,0,0,1,.35-.59l1.12-.6.29-.37-.09-21.05,0-.76,0-.15-.24-.26-.36-.11-.91,0a.68.68,0,0,1-.47-.23l-.38-.43a.68.68,0,0,1-.15-.6l.14-.62a.68.68,0,0,1,.34-.44l.62-.33a.68.68,0,0,1,.19-.07l1.24-.24,1.1-.28,1.09-.35,1.37-.73.78-.46a.68.68,0,0,1,.34-.09h.52a.68.68,0,0,1,.68.67l.09,12.94,1-.9,1-.67.17-.08,1.24-.38.13,0,1.06-.1.19,0,1,.29.88.23a.67.67,0,0,1,.23.11l.76.57.09.09.48.52.55.46a.68.68,0,0,1,.16.2l.9,1.71.28.75a.61.61,0,0,1,0,.12l.19,1.24a.6.6,0,0,1,0,.11l-.09,8.31.15.94.39.44.92.19a.69.69,0,0,1,.25.11l.81.57a.68.68,0,0,1,.28.48l0,.43a.68.68,0,0,1,0,.33l-.19.48a.68.68,0,0,1-.62.43Zm-1.41-2.42a.68.68,0,0,1,.47.54l0-.07a.68.68,0,0,1,.3-.35l.79-.45.54-.71,0-2.06-.09-5.53-.22-1.3-.41-1-.71-.82-.58-.33-.61-.17-.59.13-.52.29-.82,1.32-.27,3.92.23,5.23.41.76Z" transform="translate(-1741.8 -921.33)"/><path class="cls-1" d="M1860.9,957.28l.1,14.21,1-.71,1.09-1,1-.62,1.24-.38,1-.1,1,.29.9.24.76.57.48.52.62.52.43.81.48.9.24.67.19,1.24-.1,8.36.19,1.19.67.76,1.14.24.81.57,0,.43-.19.48-8.41,0L1865,986l.19-.52.9-.52.76-1,0-2.28-.1-5.61-.24-1.43-.48-1.19-.86-1-.76-.43-.86-.24-.86.19-.76.43-1,1.62-.29,4.09.24,5.46.62,1.14,2.28.71.1.81-.38.24-2.14-.1-2.38-.1-1.71,0-1.85.19H1855l-.19-.48v-.67l.52-.29.71-.38.52-.67-.1-21.29,0-.86-.1-.38-.48-.52-.62-.19-1,0-.38-.43.14-.62.62-.33,1.24-.24,1.14-.29,1.19-.38,1.43-.76.81-.48h.52m0-1.35h-.52a1.35,1.35,0,0,0-.69.19l-.78.46-1.29.69-1,.33-1.06.27-1.2.23a1.36,1.36,0,0,0-.39.14l-.62.33a1.35,1.35,0,0,0-.68.89l-.14.62a1.35,1.35,0,0,0,.31,1.2l.38.43a1.35,1.35,0,0,0,.95.45l.83,0,.08,0,0,.62.09,20.78-.06.07-.46.25-.53.29a1.35,1.35,0,0,0-.71,1.19v.67a1.35,1.35,0,0,0,.1.5l.19.48a1.35,1.35,0,0,0,1.26.85h.71l1.8-.18,1.61,0,2.33.09,2.13.09h.06a1.35,1.35,0,0,0,.72-.21l.23-.14a1.35,1.35,0,0,0,1,.4h0l8.41,0a1.35,1.35,0,0,0,1.25-.85l.19-.48a1.35,1.35,0,0,0,.09-.65l0-.43a1.35,1.35,0,0,0-.57-1l-.81-.57a1.35,1.35,0,0,0-.5-.22l-.7-.15-.11-.13-.11-.69.09-8.25a1.36,1.36,0,0,0,0-.22l-.19-1.24a1.35,1.35,0,0,0-.06-.25l-.24-.67a1.35,1.35,0,0,0-.08-.18l-.48-.9-.43-.81a1.35,1.35,0,0,0-.32-.4l-.55-.47-.42-.46a1.35,1.35,0,0,0-.19-.17l-.76-.57a1.35,1.35,0,0,0-.47-.23l-.9-.24-.91-.27a1.35,1.35,0,0,0-.39-.06h-.13l-1,.1-.27.05-1.24.38a1.35,1.35,0,0,0-.34.16l-1,.62-.06,0-.08-11.46a1.35,1.35,0,0,0-1.35-1.35Zm2.39,17.36.33-.07.37.1.41.23.55.65.34.84.2,1.18.09,5.48,0,1.81-.33.43-.61.36a1.35,1.35,0,0,0-.3-.14l-1.76-.55-.21-.38-.22-5.08.26-3.68.64-1,.28-.16Z" transform="translate(-1741.8 -921.33)"/><path class="cls-2" d="M1864.66,985a.68.68,0,0,1-.26-.05l-1.14-.48-1.11-.31a.68.68,0,0,1-.47-.47l-.19-.67a.7.7,0,0,1,0-.19v-6.65l0-1.4.1-.78a.66.66,0,0,1,.08-.24l.43-.76a.68.68,0,0,1,.35-.3l.38-.14.14,0,.67-.1h.1a.68.68,0,0,1,.3.07l.67.33a.67.67,0,0,1,.2.15l.48.52a.65.65,0,0,1,.1.15l.38.76a.62.62,0,0,1,0,.13l.24.9a.64.64,0,0,1,0,.19l0,2.28.09,6a.68.68,0,0,1-.39.62l-.9.43A.68.68,0,0,1,1864.66,985Z" transform="translate(-1741.8 -921.33)"/><path class="cls-1" d="M1863.75,973.06l.67.33.48.52.38.76.24.9,0,2.28.1,6-.9.43-1.14-.48-1.19-.33-.19-.67v-6.65l0-1.38.1-.71.43-.76.38-.14.67-.1m0-1.35h-.19l-.67.1a1.35,1.35,0,0,0-.28.07l-.38.14a1.35,1.35,0,0,0-.7.6l-.43.76a1.35,1.35,0,0,0-.16.48l-.1.71s0,.09,0,.13l0,1.38v6.7a1.36,1.36,0,0,0,.05.37l.19.67a1.35,1.35,0,0,0,.94.93l1.11.31,1.06.44a1.35,1.35,0,0,0,1.1,0l.9-.43a1.35,1.35,0,0,0,.77-1.25l-.1-6,0-2.23a1.35,1.35,0,0,0,0-.37l-.24-.9a1.35,1.35,0,0,0-.1-.26l-.38-.76a1.35,1.35,0,0,0-.21-.31l-.48-.52a1.35,1.35,0,0,0-.4-.3l-.67-.33a1.35,1.35,0,0,0-.61-.14Z" transform="translate(-1741.8 -921.33)"/></g><g id="O-4" data-name="O"><path class="cls-3" d="M1882.55,988.18a11,11,0,0,1-2.1-.25,8.68,8.68,0,0,1-3.13-1.13,8.4,8.4,0,0,1-2.22-2,9.64,9.64,0,0,1-1.22-2.18,11.19,11.19,0,0,1-1-3,9.84,9.84,0,0,1,.25-4.45l.1-.34a9.84,9.84,0,0,1,2-4,8.46,8.46,0,0,1,6.37-3.31h.31a13.88,13.88,0,0,1,3.08.5,9.09,9.09,0,0,1,3.24,1.64,5.4,5.4,0,0,1,1.55,2c0,.09.08.16.11.2a9,9,0,0,1,1.18,2.31,9.61,9.61,0,0,1,.46,2.75,10.72,10.72,0,0,1-.26,3.53,10.05,10.05,0,0,1-1.63,3.42,11.61,11.61,0,0,1-2.71,2.57,8.38,8.38,0,0,1-2.47,1.48A6.18,6.18,0,0,1,1882.55,988.18Z" transform="translate(-1741.8 -921.33)"/><path class="cls-1" d="M1882,968.19a13.18,13.18,0,0,1,2.91.47,8.59,8.59,0,0,1,3,1.52,5.65,5.65,0,0,1,1.52,2,8.28,8.28,0,0,1,1.09,2.14,9,9,0,0,1,.43,2.57,10.14,10.14,0,0,1-.24,3.33,9.42,9.42,0,0,1-1.52,3.18,11,11,0,0,1-2.57,2.42,7.81,7.81,0,0,1-2.28,1.38,5.53,5.53,0,0,1-1.78.28,10.43,10.43,0,0,1-2-.24,8,8,0,0,1-2.9-1,7.74,7.74,0,0,1-2-1.85,8.93,8.93,0,0,1-1.14-2,10.47,10.47,0,0,1-.9-2.8,9.28,9.28,0,0,1,.23-4.15,10,10,0,0,1,2-4.09,11.6,11.6,0,0,1,2.66-2.23,11.35,11.35,0,0,1,3.28-.86h.24m0-1.35-.38,0a9.12,9.12,0,0,0-6.8,3.53,10.45,10.45,0,0,0-2.17,4.26l-.1.32a10.52,10.52,0,0,0-.28,4.76,11.75,11.75,0,0,0,1,3.15,10.19,10.19,0,0,0,1.31,2.32,9.08,9.08,0,0,0,2.41,2.18,9.29,9.29,0,0,0,3.36,1.22,11.71,11.71,0,0,0,2.23.26,6.84,6.84,0,0,0,2.21-.35,9,9,0,0,0,2.66-1.58,12.18,12.18,0,0,0,2.85-2.71,10.74,10.74,0,0,0,1.74-3.65,11.38,11.38,0,0,0,.28-3.74,10.27,10.27,0,0,0-.5-2.92,9.72,9.72,0,0,0-1.27-2.49l-.06-.12a6,6,0,0,0-1.75-2.19,9.77,9.77,0,0,0-3.48-1.75,14.38,14.38,0,0,0-3.25-.52Z" transform="translate(-1741.8 -921.33)"/><path class="cls-2" d="M1882.74,985.39a2.66,2.66,0,0,1-1.5-.51,4,4,0,0,1-1.38-2,13,13,0,0,1-.8-2.51,17.81,17.81,0,0,1-.35-3.3,22.39,22.39,0,0,1,.1-2.94,5,5,0,0,1,.73-2.5,2.62,2.62,0,0,1,1.34-1.12,2.31,2.31,0,0,1,.74-.12,2.7,2.7,0,0,1,1.22.3,3.09,3.09,0,0,1,1.22,1.3,9.83,9.83,0,0,1,1,2.5,17.94,17.94,0,0,1,.69,3.84,15.81,15.81,0,0,1-.15,3.31,4.69,4.69,0,0,1-1,2.68,2.6,2.6,0,0,1-1.61,1Z" transform="translate(-1741.8 -921.33)"/><path class="cls-1" d="M1881.62,971.12a2,2,0,0,1,.9.23,2.39,2.39,0,0,1,1,1,9.23,9.23,0,0,1,1,2.33,17.41,17.41,0,0,1,.67,3.71,15.16,15.16,0,0,1-.14,3.18,4.12,4.12,0,0,1-.81,2.33,2,2,0,0,1-1.19.76l-.21,0a2,2,0,0,1-1.12-.4,3.41,3.41,0,0,1-1.14-1.66,12.36,12.36,0,0,1-.76-2.38,17.09,17.09,0,0,1-.33-3.18,21.56,21.56,0,0,1,.1-2.85,4.3,4.3,0,0,1,.62-2.19,2,2,0,0,1,1-.86,1.63,1.63,0,0,1,.52-.08m0-1.35h0a3,3,0,0,0-1,.16,3.27,3.27,0,0,0-1.68,1.38,5.6,5.6,0,0,0-.85,2.81,23.1,23.1,0,0,0-.1,3,18.3,18.3,0,0,0,.36,3.42,13.72,13.72,0,0,0,.84,2.64,4.77,4.77,0,0,0,1.62,2.24,3.35,3.35,0,0,0,1.87.63,2.86,2.86,0,0,0,.41,0,3.27,3.27,0,0,0,2-1.22,5.45,5.45,0,0,0,1.12-3,16.44,16.44,0,0,0,.15-3.45,18.62,18.62,0,0,0-.71-4,10.62,10.62,0,0,0-1.09-2.66,3.75,3.75,0,0,0-1.49-1.56,3.38,3.38,0,0,0-1.53-.38Z" transform="translate(-1741.8 -921.33)"/></g><g id="U"><path class="cls-3" d="M1898.75,987.89l-.15,0-1.43-.32-.12,0L1896,987a.67.67,0,0,1-.23-.16L1895,986l-.79-1a.67.67,0,0,1-.11-.21l-.32-1.07a.57.57,0,0,1,0-.1l-.14-1-.15-2.08.07-7.81-.26-.56-.14-.1-.56-.05a.68.68,0,0,1-.4-.18l-.54-.5a.68.68,0,0,1-.21-.5V970a.68.68,0,0,1,.37-.61l.57-.29a.67.67,0,0,1,.3-.07l2.48,0,1.65-.28,1.09-.34a.67.67,0,0,1,.2,0l.61,0a.68.68,0,0,1,.53.31l.25.39a.68.68,0,0,1,.11.37l0,2.46-.29,5.58.11,2.72.27,1.77.31.77.53.56.81.35h.8l.78-.31.28-.35.47-.86.16-1.61.14-2V972.3l-.14-.27-.16-.08H1903a.68.68,0,0,1-.48-.2l-.5-.5a.67.67,0,0,1-.19-.41l-.11-1a.68.68,0,0,1,.59-.74l.86-.11,3.12,0,1.12-.2.7-.23a.68.68,0,0,1,.21,0l.65,0a.68.68,0,0,1,.64.64l0,.78,0,13.77.08.1.76.1.72.15a.68.68,0,0,1,.4.26l.21.29a.68.68,0,0,1,.13.33l.07.64a.68.68,0,0,1-.19.55l-.32.32a.68.68,0,0,1-.43.2l-2.21.14-1.57.28-1.21.3-.54.26a.68.68,0,0,1-.5,0l-.53-.18a.68.68,0,0,1-.46-.54l-.11-.68,0-.43-1,.89-.11.08-1.14.68a.68.68,0,0,1-.21.08l-1.39.29h-1.31Z" transform="translate(-1741.8 -921.33)"/><path class="cls-1" d="M1898.08,969.1l.57,0,.25.39,0,2.46-.29,5.56.11,2.78.29,1.92.39,1,.71.75,1.07.46h1.07l1.07-.43.43-.53.57-1,.18-1.75.14-2v-6.52l-.32-.61-.5-.25H1903l-.5-.5-.11-1,.86-.11,3.1,0,1.18-.21.78-.25.61,0,0,.78,0,14,.39.5,1,.14.68.14.21.29.07.64-.32.32-2.21.14-1.64.29-1.32.32-.61.29-.53-.18-.11-.68-.14-1.82-.82.82-1.18,1.07-1.14.68-1.39.29h-1.18l-1.43-.32-1.07-.46-.78-.86-.75-1-.32-1.07-.14-1-.14-2,.07-7.91-.39-.86-.43-.32-.75-.07-.53-.5V970l.57-.29,2.53,0,1.71-.29,1.18-.36m0-1.35a1.35,1.35,0,0,0-.39.06l-1.09.33-1.5.25-2.41,0h0a1.35,1.35,0,0,0-.61.14l-.57.29a1.35,1.35,0,0,0-.75,1.21v.82a1.35,1.35,0,0,0,.43,1l.53.5a1.35,1.35,0,0,0,.8.36l.26,0,.08.16-.07,7.61s0,.07,0,.11l.14,2s0,.06,0,.1l.14,1a1.35,1.35,0,0,0,0,.2l.32,1.07a1.35,1.35,0,0,0,.21.42l.75,1,.09.1.78.86a1.35,1.35,0,0,0,.46.33l1.07.46.24.08,1.43.32a1.35,1.35,0,0,0,.3,0h1.18l.27,0,1.39-.29a1.35,1.35,0,0,0,.42-.16l1.14-.68a1.35,1.35,0,0,0,.22-.16l0,0a1.35,1.35,0,0,0,.88.92l.53.18a1.35,1.35,0,0,0,1-.06l.48-.23,1.14-.28,1.52-.26,2.14-.14a1.35,1.35,0,0,0,.87-.39l.32-.32a1.35,1.35,0,0,0,.39-1.11l-.07-.64a1.35,1.35,0,0,0-.26-.66l-.21-.29a1.35,1.35,0,0,0-.8-.51l-.68-.14-.09,0-.26,0,0-13.24s0,0,0-.06l0-.78a1.35,1.35,0,0,0-1.27-1.29l-.61,0h-.08a1.35,1.35,0,0,0-.41.06l-.7.22-1,.18-3,0H1903l-.86.11a1.35,1.35,0,0,0-1.18,1.49l.11,1a1.35,1.35,0,0,0,.39.81l.5.5a1.35,1.35,0,0,0,1,.4h.29v6l-.14,2L1903,982l-.38.69-.13.17-.5.2h-.53l-.56-.24-.35-.36-.23-.57-.25-1.69-.1-2.65.28-5.5,0-2.51a1.35,1.35,0,0,0-.21-.75l-.25-.39a1.35,1.35,0,0,0-1.06-.62l-.57,0Z" transform="translate(-1741.8 -921.33)"/></g><g id="S-3" data-name="S"><path class="cls-3" d="M1918.48,988.06a8.56,8.56,0,0,1-4-1,7.25,7.25,0,0,1-1-.67.68.68,0,0,1-.25-.52l-.07-5.13a.67.67,0,0,1,.11-.38l.21-.32a.68.68,0,0,1,.81-.25l.54.21a.68.68,0,0,1,.37.35l1.25,2.74a.66.66,0,0,1,.05.17,2.46,2.46,0,0,0,.8,1.45,2.56,2.56,0,0,0,1.48.56,4.32,4.32,0,0,0,.45,0,2,2,0,0,0,1.62-.58,1.7,1.7,0,0,0,.21-.82,2.37,2.37,0,0,0-.19-1.14,2.62,2.62,0,0,0-.74-.93,3.32,3.32,0,0,0-1.18-.58l-.36-.13a9.76,9.76,0,0,1-3.55-1.92,5.86,5.86,0,0,1-1.29-1.7,5.64,5.64,0,0,1-.53-2.09,6.93,6.93,0,0,1,.52-3.39,6.32,6.32,0,0,1,2.27-2.82,5.89,5.89,0,0,1,3.06-1h.2a10,10,0,0,1,2.95.64c.67.2,1.21.4,1.58.55a.68.68,0,0,1,.43.59l.18,3-.07,1.29a.67.67,0,0,1-.18.42,1.41,1.41,0,0,1-.48.34,1.49,1.49,0,0,1-.57.12h0a1,1,0,0,1-.45-.1,1.15,1.15,0,0,1-.56-1.11,2.91,2.91,0,0,0-.05-.46,4,4,0,0,0-.71-1.17,4.45,4.45,0,0,0-.76-.94,2.47,2.47,0,0,0-1.2-.5,2.76,2.76,0,0,0-.35,0,1.87,1.87,0,0,0-.81.18,1.57,1.57,0,0,0-.76.66,1.67,1.67,0,0,0,.15,1.54c.18.29.35.37,1.29.72.39.15.88.33,1.49.58,2.27.95,3,1.53,3.32,1.93a5.82,5.82,0,0,1,1.17,2.24,7.74,7.74,0,0,1,.2,3.5,6.93,6.93,0,0,1-.79,2.63,6.41,6.41,0,0,1-2.9,2.63A6.82,6.82,0,0,1,1918.48,988.06Z" transform="translate(-1741.8 -921.33)"/><path class="cls-1" d="M1919.35,968.81a9.53,9.53,0,0,1,2.75.61c.64.2,1.17.39,1.53.53l.18,3-.07,1.21a.73.73,0,0,1-.25.18.82.82,0,0,1-.3.07.37.37,0,0,1-.16,0c-.24-.12-.13-.55-.25-1.1a4.32,4.32,0,0,0-.82-1.43,4.8,4.8,0,0,0-.89-1.07,3.16,3.16,0,0,0-1.53-.64,3.45,3.45,0,0,0-.43,0,2.54,2.54,0,0,0-1.1.24,2.22,2.22,0,0,0-1.07,1,2.33,2.33,0,0,0,.18,2.21c.45.72,1,.7,3.1,1.57,2.35,1,2.86,1.51,3.07,1.75a5.18,5.18,0,0,1,1,2,7,7,0,0,1,.18,3.21,6.3,6.3,0,0,1-.71,2.39,5.85,5.85,0,0,1-2.6,2.35,6.15,6.15,0,0,1-2.69.6,7.94,7.94,0,0,1-3.62-.92,6.53,6.53,0,0,1-.89-.61l-.07-5.13.21-.32.53.21,1.25,2.74a3.12,3.12,0,0,0,1,1.85,3.2,3.2,0,0,0,1.85.71,5.13,5.13,0,0,0,.52,0,2.59,2.59,0,0,0,2.19-.88,2.3,2.3,0,0,0,.32-1.14,3,3,0,0,0-.25-1.46,3.28,3.28,0,0,0-.93-1.18,5,5,0,0,0-1.75-.82,9.18,9.18,0,0,1-3.31-1.78,5.13,5.13,0,0,1-1.14-1.5,5,5,0,0,1-.46-1.85,6.22,6.22,0,0,1,.46-3.06,5.65,5.65,0,0,1,2-2.53,5.27,5.27,0,0,1,2.71-.93h.17m0-1.35h-.23a6.57,6.57,0,0,0-3.41,1.16,7,7,0,0,0-2.52,3.12,7.57,7.57,0,0,0-.57,3.72,6.33,6.33,0,0,0,.59,2.32A6.16,6.16,0,0,0,1914,979a1.35,1.35,0,0,0-1.06.6l-.21.32a1.35,1.35,0,0,0-.23.77l.07,5.13a1.35,1.35,0,0,0,.5,1,7.9,7.9,0,0,0,1.08.73,9.24,9.24,0,0,0,4.29,1.1,7.5,7.5,0,0,0,3.27-.73,7.08,7.08,0,0,0,3.2-2.91,7.6,7.6,0,0,0,.87-2.86,8.36,8.36,0,0,0-.23-3.8,6.5,6.5,0,0,0-1.31-2.49,3.67,3.67,0,0,0-.33-.33l.06,0a2.07,2.07,0,0,0,.71-.51,1.35,1.35,0,0,0,.35-.83l.07-1.21a1.35,1.35,0,0,0,0-.16l-.18-3a1.35,1.35,0,0,0-.86-1.18c-.53-.21-1.08-.4-1.63-.57a10.54,10.54,0,0,0-3.15-.67Zm2.17,6.72-.78-.34c-.63-.26-1.12-.44-1.52-.59-.81-.3-.9-.35-1-.45a1,1,0,0,1-.12-.88.94.94,0,0,1,.44-.35,1.19,1.19,0,0,1,.52-.11l.27,0a1.81,1.81,0,0,1,.86.36,4.29,4.29,0,0,1,.62.79,5.44,5.44,0,0,1,.6.94,2.4,2.4,0,0,1,0,.36c0,.07,0,.16,0,.25Zm-2.21,10.42-.39,0a1.89,1.89,0,0,1-1.11-.4,1.77,1.77,0,0,1-.57-1,1.35,1.35,0,0,0-.1-.34l-.91-2a14.8,14.8,0,0,0,2.21.95l.38.13a2.67,2.67,0,0,1,1,.46,1.94,1.94,0,0,1,.55.68,1.68,1.68,0,0,1,.14.81,1.26,1.26,0,0,1-.1.5c-.09.13-.46.28-1.06.28Z" transform="translate(-1741.8 -921.33)"/><path class="cls-2" d="M1919.16,985.05a2.65,2.65,0,0,1-1.51-.5,2.62,2.62,0,0,1-.73-.82l-.54-.7a.43.43,0,0,1-.06-.11L1916,982c-.47-.81-.72-1.47-.32-1.86a.61.61,0,0,1,.43-.17,2.35,2.35,0,0,1,.93.33c.26.13.61.29,1.07.49l.41.18a5.45,5.45,0,0,1,1.47.81,2.55,2.55,0,0,1,.86,1.09,1.64,1.64,0,0,1,0,1.39,1.68,1.68,0,0,1-1.34.73l-.32,0Z" transform="translate(-1741.8 -921.33)"/><path class="cls-1" d="M1916.07,980.47a12.52,12.52,0,0,1,1.82.79,6.75,6.75,0,0,1,1.78.93,2.09,2.09,0,0,1,.71.89,1.2,1.2,0,0,1,0,1,1.27,1.27,0,0,1-1,.5l-.26,0a2.15,2.15,0,0,1-1.84-1.09l-.57-.75-.36-.89c-.56-1-.53-1.26-.43-1.35a.15.15,0,0,1,.11,0m0-.93a1.08,1.08,0,0,0-.75.3c-.73.7-.13,1.8.23,2.43l.33.83a.93.93,0,0,0,.12.22l.54.7a3.07,3.07,0,0,0,2.61,1.5l.38,0a2.15,2.15,0,0,0,1.68-1,2.09,2.09,0,0,0,0-1.78,3,3,0,0,0-1-1.28,5.88,5.88,0,0,0-1.58-.88l-.41-.18c-.45-.2-.8-.36-1.06-.49a2.66,2.66,0,0,0-1.13-.38Z" transform="translate(-1741.8 -921.33)"/><path class="cls-2" d="M1921.77,975.06a.68.68,0,0,1-.3-.07l-1.29-.64a6.78,6.78,0,0,1-2.49-1.29,2.34,2.34,0,0,1-.17-.32,1.73,1.73,0,0,1-.14-.47,1.42,1.42,0,0,1,.17-.94,1.4,1.4,0,0,1,.6-.55,1.56,1.56,0,0,1,.71-.16,3,3,0,0,1,1.17.29,4.42,4.42,0,0,1,1.93,1.65,4.57,4.57,0,0,1,.4.75l.18.63a.67.67,0,0,1,0,.4l-.09.26a.68.68,0,0,1-.64.45Z" transform="translate(-1741.8 -921.33)"/><path class="cls-1" d="M1918.84,971.3a2.38,2.38,0,0,1,.89.24,3.76,3.76,0,0,1,1.63,1.4,3.94,3.94,0,0,1,.34.64l.15.55-.09.26-1.29-.64a7.1,7.1,0,0,1-2.23-1.06,1.6,1.6,0,0,1-.12-.21,1.11,1.11,0,0,1-.09-.29.79.79,0,0,1,.08-.51.73.73,0,0,1,.32-.29.88.88,0,0,1,.4-.09m0-1.35a2.22,2.22,0,0,0-1,.23,2.07,2.07,0,0,0-.89.82,2.12,2.12,0,0,0-.25,1.37,2.39,2.39,0,0,0,.17.61,2.5,2.5,0,0,0,.24.45c.12.19.49.75,2.83,1.57l1.22.6a1.35,1.35,0,0,0,1.88-.77l.09-.26a1.35,1.35,0,0,0,0-.8l-.15-.55a1.37,1.37,0,0,0-.06-.16,5.31,5.31,0,0,0-.46-.86,5.09,5.09,0,0,0-2.23-1.9,3.63,3.63,0,0,0-1.43-.35Z" transform="translate(-1741.8 -921.33)"/></g></g></g></svg>